<svg xmlns="http://www.w3.org/2000/svg" viewBox="0 0 64 64" id="headphones"><path fill="#f0f3f5" fill-rule="evenodd" d="m50.58 14.19-2.5 2.29.23 3.88c3.55 4.05 5.53 9.36 4.63 15l-.39 2.48-3.12 7.8.63 7.91h1.92c1.37 0 2.55-.99 2.79-2.34l3.22-18.06c1.32-7.4-1.94-14.18-7.4-18.95zm-37.16 0c-5.46 4.78-8.72 11.55-7.4 18.95L9.23 51.2a2.84 2.84 0 0 0 2.79 2.34h1.92l.87-6.95-3.36-8.75-.39-2.48c-.9-5.64 1.08-10.95 4.63-15l.26-3.98-2.52-2.18z"></path><path fill="#9fa9b6" fill-rule="evenodd" d="M23.88 34.95c-.22-.01-.45 0-.68.04l-2.69.43-.63 10.36 3.85 9.89 2.69-.43c1.85-.29 3.1-2.01 2.8-3.86l-2.16-13.59a3.357 3.357 0 0 0-3.18-2.84Z"></path><path fill="#8fd7f8" d="m14.26 33.991 2.687-.426a3.372 3.372 0 0 1 3.856 2.8l2.905 18.3a3.372 3.372 0 0 1-2.8 3.857l-2.686.427a3.372 3.372 0 0 1-3.857-2.8L11.46 37.848a3.372 3.372 0 0 1 2.8-3.857Z"></path><path fill="#9fa9b6" fill-rule="evenodd" d="M40.12 34.95a3.377 3.377 0 0 0-3.18 2.84l-2.16 13.59c-.29 1.85.96 3.57 2.8 3.86l2.69.43 5.05-9.64-1.84-10.62-2.68-.43a3.2 3.2 0 0 0-.69-.04Z"></path><path fill="#8fd7f8" fill-rule="evenodd" d="m49.74 33.99-2.68-.43c-1.85-.29-3.57.96-3.86 2.8l-2.9 18.3c-.29 1.85.96 3.57 2.8 3.86l2.68.43c1.85.29 3.57-.96 3.86-2.8l2.9-18.3c.29-1.85-.96-3.57-2.8-3.86Z"></path><path fill="#e4ecf0" fill-rule="evenodd" d="m50.58 14.19-2.5 2.29.23 3.88c.96 1.1 1.8 2.29 2.51 3.55.1-.17.19-.36.26-.55l1.95-6.71a26.96 26.96 0 0 0-2.44-2.46Zm-37.15 0c-.88.77-1.69 1.59-2.44 2.46l1.94 6.71c.07.2.15.38.26.56.7-1.26 1.55-2.46 2.51-3.55l.26-3.98-2.52-2.18Z"></path><path fill="#8fd7f8" fill-rule="evenodd" d="M32 5c-6.54 0-12.94 2.25-18.04 6a2.16 2.16 0 0 0-.78 2.41l1.95 6.06c.49 1.51 2.38 2 3.54.92 3.57-3.34 8.46-5.43 13.32-5.43s9.75 2.09 13.33 5.44c1.16 1.08 3.05.59 3.54-.92l1.96-6.06a2.16 2.16 0 0 0-.78-2.41c-5.1-3.75-11.51-6-18.05-6Z"></path><path fill="#75cdf8" fill-rule="evenodd" d="M46.37 33.52c-.4.02-.78.11-1.14.25l1.34.21c1.85.29 3.1 2.01 2.8 3.86l-2.91 18.3a3.367 3.367 0 0 1-2.06 2.59l1.37.22c1.85.29 3.57-.96 3.86-2.8l2.91-18.3c.29-1.85-.96-3.57-2.8-3.86l-2.69-.43c-.23-.04-.46-.05-.68-.04Zm-28.74 0c-.22 0-.45 0-.68.04l-1.34.22c1.05.43 1.85 1.38 2.04 2.59l2.9 18.3c.29 1.85-.96 3.57-2.8 3.86l-1.32.21c.55.22 1.17.32 1.8.22l2.69-.43c1.85-.29 3.1-2.01 2.8-3.86l-2.9-18.3a3.357 3.357 0 0 0-3.18-2.84ZM32 5c-.53 0-1.06.02-1.58.05 5.98.33 11.77 2.51 16.46 5.95.75.55 1.07 1.52.78 2.41l-1.96 6.06c-.11.3-.28.58-.51.8.04.04.09.08.13.12 1.16 1.08 3.05.59 3.54-.92l1.96-6.06a2.16 2.16 0 0 0-.78-2.41c-5.1-3.75-11.51-6-18.05-6Z"></path><path d="m51.71 13.91.06-.19c.42-1.3-.04-2.72-1.14-3.52C45.19 6.2 38.57 4 31.99 4s-13.2 2.2-18.63 6.2c-1.1.81-1.56 2.22-1.14 3.52l.06.19C6.44 19.27 3.79 26.3 5.03 33.32l3.21 18.06a3.829 3.829 0 0 0 3.77 3.16h1.06l.28 1.77c.18 1.16.8 2.17 1.75 2.86a4.302 4.302 0 0 0 3.26.77l2.69-.43c1.16-.18 2.17-.8 2.86-1.75.27-.37.42-.79.56-1.21l2.09-.33c1.16-.18 2.17-.8 2.86-1.75s.96-2.1.78-3.26l-2.16-13.59c-.18-1.16-.8-2.17-1.75-2.86-.94-.69-2.1-.96-3.26-.78l-2.09.33c-.26-.36-.54-.71-.91-.98-.94-.69-2.1-.96-3.26-.78l-2.69.43c-.84.13-1.55.56-2.17 1.11-.4-4.39.99-8.74 3.99-12.44.4.17.82.3 1.27.3.81 0 1.57-.3 2.16-.85 3.51-3.28 8.11-5.16 12.64-5.16s9.13 1.88 12.64 5.17c.59.55 1.36.85 2.16.85.46 0 .88-.13 1.27-.3 2.99 3.7 4.38 8.05 3.99 12.44-.62-.55-1.33-.97-2.16-1.11l-2.68-.43c-1.16-.18-2.31.09-3.26.78-.37.27-.64.62-.9.98l-2.09-.33c-1.16-.18-2.31.09-3.26.78a4.4 4.4 0 0 0-1.75 2.86l-2.16 13.59c-.18 1.16.09 2.31.78 3.26.68.94 1.7 1.57 2.86 1.75l2.08.33c.14.42.29.84.56 1.21a4.4 4.4 0 0 0 2.86 1.75l2.68.43c.23.04.46.05.69.05 2.11 0 3.97-1.54 4.32-3.69l.28-1.77h1.06a3.82 3.82 0 0 0 3.77-3.16l3.21-18.06c1.25-7.02-1.41-14.05-7.25-19.41ZM23.35 35.98c.62-.1 1.26.05 1.77.42s.85.92.95 1.55l2.16 13.59a2.365 2.365 0 0 1-1.97 2.72l-1.55.25-2.9-18.28 1.56-.25Zm-10.49-.05c.37-.51.92-.85 1.55-.95l2.69-.43c.62-.1 1.25.05 1.77.42.51.37.85.92.95 1.55l2.91 18.3a2.365 2.365 0 0 1-1.97 2.72l-2.69.43A2.365 2.365 0 0 1 15.35 56l-2.91-18.3c-.1-.63.05-1.26.42-1.77Zm-2.79-.41 2.7 17.02h-.75c-.88 0-1.65-.65-1.81-1.51L7 32.97c-1.08-6.05 1.11-12.14 5.96-16.94l1.21 3.75c.06.2.18.36.27.54-3.66 4.47-5.23 9.84-4.38 15.2Zm35.94-15.86c-3.88-3.63-8.98-5.71-14.01-5.71s-10.13 2.08-14.01 5.7c-.22.2-.5.31-.8.31-.51 0-.96-.33-1.11-.81l-1.96-6.06c-.15-.48.01-1 .42-1.3 5.1-3.74 11.29-5.81 17.45-5.81s12.36 2.06 17.45 5.81c.41.3.57.82.42 1.3l-1.96 6.06c-.16.48-.6.81-1.11.81-.3 0-.58-.11-.79-.31ZM36.2 53.31c-.37-.51-.52-1.14-.42-1.77l2.16-13.59c.1-.63.44-1.18.95-1.55.51-.37 1.13-.52 1.77-.42l1.55.25-2.9 18.28-1.55-.25a2.36 2.36 0 0 1-1.55-.95Zm11.5 4.24c-.51.37-1.14.52-1.77.42l-2.69-.43a2.365 2.365 0 0 1-1.97-2.72l2.91-18.3c.1-.63.44-1.18.95-1.55.41-.3.89-.45 1.39-.45.13 0 .25.01.38.03l2.69.43a2.365 2.365 0 0 1 1.97 2.72L48.65 56c-.1.63-.44 1.18-.95 1.55Zm9.29-24.58-3.21 18.06c-.15.86-.93 1.51-1.81 1.51h-.75l2.7-17.02c.85-5.37-.72-10.73-4.38-15.2.1-.17.21-.34.27-.53l1.21-3.75c4.85 4.8 7.04 10.88 5.96 16.94Z"></path><path d="m16.5 45.58 1.05 6.61a1 1 0 0 0 .99.84c.05 0 .1 0 .16-.01.54-.09.92-.6.83-1.14l-1.05-6.61a.996.996 0 0 0-1.14-.83c-.54.09-.92.6-.83 1.14zm.43-2.65c.05 0 .1 0 .16-.01.55-.09.92-.6.83-1.14l-.3-1.87a.994.994 0 0 0-1.14-.83c-.55.09-.92.6-.83 1.14l.3 1.87a1 1 0 0 0 .99.84zm29.74 1.51a.986.986 0 0 0-1.14.83l-1.05 6.61a.99.99 0 0 0 .83 1.14c.05 0 .11.01.16.01.48 0 .91-.35.99-.84l1.05-6.61a.99.99 0 0 0-.83-1.14zm.85-5.37a.996.996 0 0 0-1.14.83l-.3 1.87c-.09.54.29 1.06.83 1.14.05 0 .11.01.16.01.48 0 .91-.35.99-.84l.3-1.87a.996.996 0 0 0-.83-1.14z"></path></svg>