<?xml version="1.0" encoding="UTF-8"?>
<!DOCTYPE svg PUBLIC "-//W3C//DTD SVG 1.1//EN" "http://www.w3.org/Graphics/SVG/1.1/DTD/svg11.dtd">
<svg xmlns="http://www.w3.org/2000/svg" version="1.1" width="512px" height="512px" style="shape-rendering:geometricPrecision; text-rendering:geometricPrecision; image-rendering:optimizeQuality; fill-rule:evenodd; clip-rule:evenodd" xmlns:xlink="http://www.w3.org/1999/xlink">
       <g transform="translate(15)">
<g><path style="opacity:0.975" fill="#005efe" d="M 418.5,25.5 C 408.772,39.8991 399.439,54.5657 390.5,69.5C 386.034,67.4335 381.701,65.1002 377.5,62.5C 385.322,48.8584 393.655,35.525 402.5,22.5C 408.618,19.4083 413.951,20.4083 418.5,25.5 Z"/></g>
<g><path style="opacity:0.976" fill="#00a1fa" d="M 418.5,25.5 C 427.414,30.4099 436.08,35.7433 444.5,41.5C 448.272,45.6667 448.438,50.0001 445,54.5C 437.476,66.2314 429.976,77.898 422.5,89.5C 411.461,83.3199 400.794,76.6532 390.5,69.5C 399.439,54.5657 408.772,39.8991 418.5,25.5 Z"/></g>
<g><path style="opacity:0.962" fill="#c5542e" d="M 345.5,99.5 C 338.5,99.5 331.5,99.5 324.5,99.5C 324.824,84.2552 324.491,69.0886 323.5,54C 278.5,53.3333 233.5,53.3333 188.5,54C 187.509,69.0886 187.176,84.2552 187.5,99.5C 180.167,99.5 172.833,99.5 165.5,99.5C 165.333,83.8298 165.5,68.1631 166,52.5C 167.613,42.2197 173.447,35.7197 183.5,33C 231.833,32.3333 280.167,32.3333 328.5,33C 336.667,35.8333 342.167,41.3333 345,49.5C 345.5,66.1633 345.667,82.83 345.5,99.5 Z"/></g>
<g><path style="opacity:1" fill="#040b10" d="M 419.5,38.5 C 421.484,38.484 422.484,39.484 422.5,41.5C 417.904,49.9393 413.071,58.2726 408,66.5C 404.621,69.4904 402.955,68.8237 403,64.5C 408.329,55.6821 413.829,47.0155 419.5,38.5 Z"/></g>
<g><path style="opacity:1" fill="#040b10" d="M 430.5,47.5 C 435.156,46.9718 436.323,48.6384 434,52.5C 429.167,60.1667 424.333,67.8333 419.5,75.5C 414.924,77.0921 413.758,75.7588 416,71.5C 421.107,63.6106 425.941,55.6106 430.5,47.5 Z"/></g>
<g><path style="opacity:0.978" fill="#04080f" d="M 377.5,62.5 C 381.701,65.1002 386.034,67.4335 390.5,69.5C 400.794,76.6532 411.461,83.3199 422.5,89.5C 422.25,91.674 421.25,93.3406 419.5,94.5C 409.206,87.3468 398.539,80.6801 387.5,74.5C 383.5,71.8333 379.5,69.1667 375.5,66.5C 375.733,64.9382 376.4,63.6049 377.5,62.5 Z"/></g>
<g><path style="opacity:0.974" fill="#055efc" d="M 375.5,66.5 C 379.5,69.1667 383.5,71.8333 387.5,74.5C 381.833,83.8333 376.167,93.1667 370.5,102.5C 368.5,102.5 366.5,102.5 364.5,102.5C 360.629,102.815 356.962,102.482 353.5,101.5C 360.597,89.6286 367.931,77.962 375.5,66.5 Z"/></g>
<g><path style="opacity:0.993" fill="#13a3fa" d="M 387.5,74.5 C 398.539,80.6801 409.206,87.3468 419.5,94.5C 418.758,96.9798 417.758,99.3131 416.5,101.5C 415.833,101.5 415.5,101.833 415.5,102.5C 413.5,102.5 411.5,102.5 409.5,102.5C 408.167,102.5 406.833,102.5 405.5,102.5C 410.153,97.1177 408.986,93.4511 402,91.5C 399.006,94.8189 396.506,98.4855 394.5,102.5C 392.5,102.5 390.5,102.5 388.5,102.5C 390.711,97.6102 393.378,92.9435 396.5,88.5C 394.381,86.6002 392.047,84.9336 389.5,83.5C 385.253,89.6564 381.253,95.9898 377.5,102.5C 375.167,102.5 372.833,102.5 370.5,102.5C 376.167,93.1667 381.833,83.8333 387.5,74.5 Z"/></g>
<g><path style="opacity:1" fill="#f8fafc" d="M 388.5,102.5 C 384.833,102.5 381.167,102.5 377.5,102.5C 381.253,95.9898 385.253,89.6564 389.5,83.5C 392.047,84.9336 394.381,86.6002 396.5,88.5C 393.378,92.9435 390.711,97.6102 388.5,102.5 Z"/></g>
<g><path style="opacity:1" fill="#f7fafa" d="M 405.5,102.5 C 402.167,102.5 398.833,102.5 395.5,102.5C 395.167,102.5 394.833,102.5 394.5,102.5C 396.506,98.4855 399.006,94.8189 402,91.5C 408.986,93.4511 410.153,97.1177 405.5,102.5 Z"/></g>
<g><path style="opacity:0.961" fill="#0d0501" d="M 165.5,99.5 C 172.833,99.5 180.167,99.5 187.5,99.5C 188.833,99.5 189.5,100.167 189.5,101.5C 189.573,103.027 188.906,104.027 187.5,104.5C 180.167,104.5 172.833,104.5 165.5,104.5C 164.094,104.027 163.427,103.027 163.5,101.5C 163.5,100.167 164.167,99.5 165.5,99.5 Z"/></g>
<g><path style="opacity:0.965" fill="#0e0501" d="M 324.5,99.5 C 331.5,99.5 338.5,99.5 345.5,99.5C 347.698,99.1201 349.365,99.7868 350.5,101.5C 349.728,102.694 348.728,103.694 347.5,104.5C 339.826,104.666 332.159,104.5 324.5,104C 323.748,103.329 323.414,102.496 323.5,101.5C 323.833,100.833 324.167,100.167 324.5,99.5 Z"/></g>
<g><path style="opacity:0.988" fill="#ffd61c" d="M 91.5,101.5 C 95.0363,110.267 98.8696,118.934 103,127.5C 106.023,132.023 109.856,135.69 114.5,138.5C 115.666,159.159 115.833,179.825 115,200.5C 107.861,196.442 101.528,191.442 96,185.5C 95,182.5 94,179.5 93,176.5C 92.6667,164.833 92.3333,153.167 92,141.5C 87.4622,126.901 77.6289,121.568 62.5,125.5C 62.3338,119.491 62.5005,113.491 63,107.5C 63.7845,105.714 64.9512,104.214 66.5,103C 74.7492,101.594 83.0826,101.094 91.5,101.5 Z"/></g>
<g><path style="opacity:0.992" fill="#c4542d" d="M 116.5,101.5 C 126.5,101.5 136.5,101.5 146.5,101.5C 146.5,138.167 146.5,174.833 146.5,211.5C 136.5,211.5 126.5,211.5 116.5,211.5C 116.5,174.833 116.5,138.167 116.5,101.5 Z"/></g>
<g><path style="opacity:0.998" fill="#fed61d" d="M 156.5,101.5 C 158.833,101.5 161.167,101.5 163.5,101.5C 163.427,103.027 164.094,104.027 165.5,104.5C 168.641,105.321 171.975,105.821 175.5,106C 170.14,112.573 166.807,120.073 165.5,128.5C 166.865,142.169 173.865,146.669 186.5,142C 189.867,138.297 193.534,134.964 197.5,132C 204.819,129.343 212.152,126.676 219.5,124C 226.012,117.981 229.346,110.481 229.5,101.5C 239.833,101.5 250.167,101.5 260.5,101.5C 264.057,104.246 264.89,107.58 263,111.5C 258.936,115.786 254.103,118.952 248.5,121C 236.09,134.094 238.424,143.761 255.5,150C 257.134,150.494 258.801,150.66 260.5,150.5C 257.441,160.846 254.274,171.179 251,181.5C 249.74,186.814 251.574,190.647 256.5,193C 268.56,196.465 280.56,200.131 292.5,204C 297.374,205.224 301.041,203.724 303.5,199.5C 310.769,215.469 323.102,221.969 340.5,219C 346.889,218.047 353.222,216.88 359.5,215.5C 359.5,222.833 359.5,230.167 359.5,237.5C 348.538,235.723 339.704,239.39 333,248.5C 328.029,254.774 324.362,261.774 322,269.5C 319.762,289.921 328.762,301.587 349,304.5C 354.351,304.37 359.517,303.37 364.5,301.5C 364.5,306.167 364.5,310.833 364.5,315.5C 341.833,315.5 319.167,315.5 296.5,315.5C 300.214,311.95 303.381,307.95 306,303.5C 308.519,293.47 306.019,284.97 298.5,278C 288.24,272.007 279.74,273.841 273,283.5C 267.354,293.417 264.521,304.084 264.5,315.5C 257.167,315.5 249.833,315.5 242.5,315.5C 247.873,308.582 251.206,300.749 252.5,292C 251.387,283.054 246.387,277.888 237.5,276.5C 246,264.588 246.333,252.588 238.5,240.5C 243.498,220.217 243.665,199.883 239,179.5C 236.311,167.935 230.478,158.435 221.5,151C 212.301,146.293 204.801,148.127 199,156.5C 196.73,169.04 191.73,180.374 184,190.5C 177.235,200.351 176.901,210.351 183,220.5C 188.713,227.948 194.88,234.948 201.5,241.5C 193.41,248.041 191.244,256.375 195,266.5C 196.886,270.44 199.386,273.94 202.5,277C 207.938,280.716 213.605,283.882 219.5,286.5C 210.956,305.411 203.123,305.078 196,285.5C 189.544,275.005 181.211,273.005 171,279.5C 163.982,290.398 160.815,302.398 161.5,315.5C 156.833,315.5 152.167,315.5 147.5,315.5C 147.334,307.826 147.5,300.159 148,292.5C 154.82,280.538 159.653,267.872 162.5,254.5C 162.466,246.748 159.133,241.082 152.5,237.5C 152.666,229.493 152.5,221.493 152,213.5C 150.89,211.963 149.39,211.297 147.5,211.5C 147.5,207.833 147.5,204.167 147.5,200.5C 162.102,201.616 170.602,194.949 173,180.5C 174.777,162.109 166.611,154.109 148.5,156.5C 147.335,148.187 147.168,139.853 148,131.5C 154.983,122.714 157.816,112.714 156.5,101.5 Z"/></g>
<g><path style="opacity:0.976" fill="#fed61c" d="M 189.5,101.5 C 201.167,101.5 212.833,101.5 224.5,101.5C 224.638,108.932 221.971,115.098 216.5,120C 203.325,122.086 192.325,128.086 183.5,138C 178.498,140.601 174.665,139.434 172,134.5C 171.333,130.5 171.333,126.5 172,122.5C 174.231,117.269 176.897,112.269 180,107.5C 182.378,106.033 184.878,105.033 187.5,104.5C 188.906,104.027 189.573,103.027 189.5,101.5 Z"/></g>
<g><path style="opacity:0.984" fill="#ffd61d" d="M 267.5,101.5 C 285.5,101.5 303.5,101.5 321.5,101.5C 324.431,105.534 326.431,110.034 327.5,115C 326.559,122.881 323.226,129.548 317.5,135C 310.916,140.959 303.249,144.792 294.5,146.5C 286.141,144.326 277.808,141.993 269.5,139.5C 265.942,140.401 263.275,142.401 261.5,145.5C 253.556,145.686 248.222,142.186 245.5,135C 246.217,130.9 248.217,127.567 251.5,125C 257.487,122.674 262.654,119.174 267,114.5C 270.151,110.261 270.317,105.927 267.5,101.5 Z"/></g>
<g><path style="opacity:0.999" fill="#fed61d" d="M 350.5,101.5 C 351.5,101.5 352.5,101.5 353.5,101.5C 356.962,102.482 360.629,102.815 364.5,102.5C 364.5,121.5 364.5,140.5 364.5,159.5C 361.737,160.987 358.737,161.654 355.5,161.5C 347.642,159.539 339.642,158.205 331.5,157.5C 325.107,157.534 319.44,159.534 314.5,163.5C 316.353,158.935 315.353,155.102 311.5,152C 307.891,151.299 304.558,150.132 301.5,148.5C 318.782,144.383 329.115,133.55 332.5,116C 332.505,112.349 331.505,109.016 329.5,106C 335.681,105.828 341.681,105.328 347.5,104.5C 348.728,103.694 349.728,102.694 350.5,101.5 Z"/></g>
<g><path style="opacity:0.946" fill="#ffd61c" d="M 416.5,101.5 C 424.84,101.334 433.173,101.5 441.5,102C 444.196,102.69 446.363,104.19 448,106.5C 449.42,116.086 449.92,125.753 449.5,135.5C 438.903,137.116 430.736,133.45 425,124.5C 421.546,117.262 418.379,109.928 415.5,102.5C 415.5,101.833 415.833,101.5 416.5,101.5 Z"/></g>
<g><path style="opacity:1" fill="#fb9702" d="M 224.5,101.5 C 226.167,101.5 227.833,101.5 229.5,101.5C 229.346,110.481 226.012,117.981 219.5,124C 212.152,126.676 204.819,129.343 197.5,132C 193.534,134.964 189.867,138.297 186.5,142C 173.865,146.669 166.865,142.169 165.5,128.5C 166.807,120.073 170.14,112.573 175.5,106C 171.975,105.821 168.641,105.321 165.5,104.5C 172.833,104.5 180.167,104.5 187.5,104.5C 184.878,105.033 182.378,106.033 180,107.5C 176.897,112.269 174.231,117.269 172,122.5C 171.333,126.5 171.333,130.5 172,134.5C 174.665,139.434 178.498,140.601 183.5,138C 192.325,128.086 203.325,122.086 216.5,120C 221.971,115.098 224.638,108.932 224.5,101.5 Z"/></g>
<g><path style="opacity:1" fill="#ff9802" d="M 260.5,101.5 C 262.833,101.5 265.167,101.5 267.5,101.5C 270.317,105.927 270.151,110.261 267,114.5C 262.654,119.174 257.487,122.674 251.5,125C 248.217,127.567 246.217,130.9 245.5,135C 248.222,142.186 253.556,145.686 261.5,145.5C 261.371,147.216 261.038,148.883 260.5,150.5C 258.801,150.66 257.134,150.494 255.5,150C 238.424,143.761 236.09,134.094 248.5,121C 254.103,118.952 258.936,115.786 263,111.5C 264.89,107.58 264.057,104.246 260.5,101.5 Z"/></g>
<g><path style="opacity:1" fill="#c4552d" d="M 364.5,102.5 C 366.5,102.5 368.5,102.5 370.5,102.5C 372.833,102.5 375.167,102.5 377.5,102.5C 381.167,102.5 384.833,102.5 388.5,102.5C 390.5,102.5 392.5,102.5 394.5,102.5C 394.833,102.5 395.167,102.5 395.5,102.5C 395.5,106.5 395.5,110.5 395.5,114.5C 395.5,116.167 395.5,117.833 395.5,119.5C 395.5,150.167 395.5,180.833 395.5,211.5C 385.167,211.5 374.833,211.5 364.5,211.5C 364.5,210.833 364.5,210.167 364.5,209.5C 364.5,194.833 364.5,180.167 364.5,165.5C 364.5,163.5 364.5,161.5 364.5,159.5C 364.5,140.5 364.5,121.5 364.5,102.5 Z"/></g>
<g><path style="opacity:0.99" fill="#fed61c" d="M 395.5,102.5 C 398.833,102.5 402.167,102.5 405.5,102.5C 406.833,102.5 408.167,102.5 409.5,102.5C 413.319,110.807 417.153,119.141 421,127.5C 427.536,138.183 437.036,142.516 449.5,140.5C 449.5,146.167 449.5,151.833 449.5,157.5C 433.788,164.591 429.621,175.924 437,191.5C 440.025,196.038 444.191,198.704 449.5,199.5C 449.5,210.833 449.5,222.167 449.5,233.5C 443.409,239.417 437.076,245.251 430.5,251C 423.564,254.94 416.897,259.273 410.5,264C 400.75,279.357 403.417,292.357 418.5,303C 423.266,305.871 428.433,307.038 434,306.5C 439.284,306.554 444.451,305.887 449.5,304.5C 449.55,309.045 447.883,312.711 444.5,315.5C 428.167,315.5 411.833,315.5 395.5,315.5C 395.5,302.5 395.5,289.5 395.5,276.5C 395.5,274.167 395.5,271.833 395.5,269.5C 395.5,260.5 395.5,251.5 395.5,242.5C 397.144,242.714 398.644,242.38 400,241.5C 400.499,236.177 400.666,230.844 400.5,225.5C 406.206,228.217 412.206,229.051 418.5,228C 424.912,225.353 427.912,220.52 427.5,213.5C 427.589,209.933 426.755,206.6 425,203.5C 420.409,196.905 415.076,190.905 409,185.5C 405.127,179.34 403.793,172.673 405,165.5C 406.667,158.167 408.333,150.833 410,143.5C 410.667,137.833 410.667,132.167 410,126.5C 407.089,120.082 402.256,116.082 395.5,114.5C 395.5,110.5 395.5,106.5 395.5,102.5 Z"/></g>
<g><path style="opacity:1" fill="#ff9802" d="M 409.5,102.5 C 411.5,102.5 413.5,102.5 415.5,102.5C 418.379,109.928 421.546,117.262 425,124.5C 430.736,133.45 438.903,137.116 449.5,135.5C 449.5,137.167 449.5,138.833 449.5,140.5C 437.036,142.516 427.536,138.183 421,127.5C 417.153,119.141 413.319,110.807 409.5,102.5 Z"/></g>
<g><path style="opacity:1" fill="#f99806" d="M 321.5,101.5 C 322.167,101.5 322.833,101.5 323.5,101.5C 323.414,102.496 323.748,103.329 324.5,104C 332.159,104.5 339.826,104.666 347.5,104.5C 341.681,105.328 335.681,105.828 329.5,106C 331.505,109.016 332.505,112.349 332.5,116C 329.115,133.55 318.782,144.383 301.5,148.5C 298.933,148.279 296.599,147.612 294.5,146.5C 303.249,144.792 310.916,140.959 317.5,135C 323.226,129.548 326.559,122.881 327.5,115C 326.431,110.034 324.431,105.534 321.5,101.5 Z"/></g>
<g><path style="opacity:1" fill="#fe9802" d="M 395.5,114.5 C 402.256,116.082 407.089,120.082 410,126.5C 410.667,132.167 410.667,137.833 410,143.5C 408.333,150.833 406.667,158.167 405,165.5C 403.793,172.673 405.127,179.34 409,185.5C 415.076,190.905 420.409,196.905 425,203.5C 426.755,206.6 427.589,209.933 427.5,213.5C 427.912,220.52 424.912,225.353 418.5,228C 412.206,229.051 406.206,228.217 400.5,225.5C 400.5,223.5 400.5,221.5 400.5,219.5C 402.78,220.64 405.114,221.807 407.5,223C 420.591,224.677 425.091,219.177 421,206.5C 416.409,199.905 411.076,193.905 405,188.5C 399.95,181.259 398.283,173.259 400,164.5C 403.751,152.422 405.417,140.089 405,127.5C 402.869,123.53 399.702,120.863 395.5,119.5C 395.5,117.833 395.5,116.167 395.5,114.5 Z"/></g>
<g><path style="opacity:1" fill="#fed51c" d="M 395.5,119.5 C 399.702,120.863 402.869,123.53 405,127.5C 405.417,140.089 403.751,152.422 400,164.5C 398.283,173.259 399.95,181.259 405,188.5C 411.076,193.905 416.409,199.905 421,206.5C 425.091,219.177 420.591,224.677 407.5,223C 405.114,221.807 402.78,220.64 400.5,219.5C 400.663,217.143 400.497,214.81 400,212.5C 398.644,211.62 397.144,211.286 395.5,211.5C 395.5,180.833 395.5,150.167 395.5,119.5 Z"/></g>
<g><path style="opacity:0.995" fill="#fc9706" d="M 91.5,101.5 C 93.5,101.5 95.5,101.5 97.5,101.5C 100.095,109.363 103.262,117.03 107,124.5C 108.978,127.645 111.478,130.312 114.5,132.5C 115.499,122.188 115.832,111.855 115.5,101.5C 115.833,101.5 116.167,101.5 116.5,101.5C 116.5,138.167 116.5,174.833 116.5,211.5C 116.167,211.5 115.833,211.5 115.5,211.5C 115.657,210.127 115.49,208.793 115,207.5C 109.114,202.613 102.947,198.113 96.5,194C 91.1369,188.251 88.3035,181.418 88,173.5C 87.6667,163.167 87.3333,152.833 87,142.5C 82.6895,130.446 74.5229,126.78 62.5,131.5C 62.5,129.5 62.5,127.5 62.5,125.5C 77.6289,121.568 87.4622,126.901 92,141.5C 92.3333,153.167 92.6667,164.833 93,176.5C 94,179.5 95,182.5 96,185.5C 101.528,191.442 107.861,196.442 115,200.5C 115.833,179.825 115.666,159.159 114.5,138.5C 109.856,135.69 106.023,132.023 103,127.5C 98.8696,118.934 95.0363,110.267 91.5,101.5 Z"/></g>
<g><path style="opacity:0.958" fill="#ffd61c" d="M 97.5,101.5 C 103.5,101.5 109.5,101.5 115.5,101.5C 115.832,111.855 115.499,122.188 114.5,132.5C 111.478,130.312 108.978,127.645 107,124.5C 103.262,117.03 100.095,109.363 97.5,101.5 Z"/></g>
<g><path style="opacity:0.985" fill="#fed61c" d="M 115.5,211.5 C 113.61,211.297 112.11,211.963 111,213.5C 110.501,218.155 110.334,222.821 110.5,227.5C 108.143,227.663 105.81,227.497 103.5,227C 97.2755,224.388 90.9422,222.055 84.5,220C 76.7428,218.755 69.4095,219.921 62.5,223.5C 62.5,192.833 62.5,162.167 62.5,131.5C 74.5229,126.78 82.6895,130.446 87,142.5C 87.3333,152.833 87.6667,163.167 88,173.5C 88.3035,181.418 91.1369,188.251 96.5,194C 102.947,198.113 109.114,202.613 115,207.5C 115.49,208.793 115.657,210.127 115.5,211.5 Z"/></g>
<g><path style="opacity:1" fill="#fffcfa" d="M 294.5,146.5 C 296.599,147.612 298.933,148.279 301.5,148.5C 304.558,150.132 307.891,151.299 311.5,152C 315.353,155.102 316.353,158.935 314.5,163.5C 313.304,166.421 312.304,169.421 311.5,172.5C 309.431,178.376 307.764,184.376 306.5,190.5C 304.928,193.215 303.928,196.215 303.5,199.5C 301.041,203.724 297.374,205.224 292.5,204C 280.56,200.131 268.56,196.465 256.5,193C 251.574,190.647 249.74,186.814 251,181.5C 254.274,171.179 257.441,160.846 260.5,150.5C 261.038,148.883 261.371,147.216 261.5,145.5C 263.275,142.401 265.942,140.401 269.5,139.5C 277.808,141.993 286.141,144.326 294.5,146.5 Z"/></g>
<g><path style="opacity:1" fill="#ffb8f9" d="M 268.5,145.5 C 282.568,149.134 296.235,153.634 309.5,159C 305.56,172.153 301.227,185.153 296.5,198C 283.193,194.879 270.026,191.046 257,186.5C 259.732,172.579 263.565,158.912 268.5,145.5 Z"/></g>
<g><path style="opacity:1" fill="#ff9802" d="M 238.5,240.5 C 237.167,239.5 235.833,238.5 234.5,237.5C 238.994,217.023 238.494,196.69 233,176.5C 230.504,167.65 225.671,160.484 218.5,155C 213.605,152.606 209.105,153.106 205,156.5C 202.454,162.31 200.454,168.31 199,174.5C 194.92,182.329 190.587,189.996 186,197.5C 182.371,204.382 182.704,211.048 187,217.5C 193.335,225.333 199.835,233 206.5,240.5C 204.784,240.629 203.117,240.962 201.5,241.5C 194.88,234.948 188.713,227.948 183,220.5C 176.901,210.351 177.235,200.351 184,190.5C 191.73,180.374 196.73,169.04 199,156.5C 204.801,148.127 212.301,146.293 221.5,151C 230.478,158.435 236.311,167.935 239,179.5C 243.665,199.883 243.498,220.217 238.5,240.5 Z"/></g>
<g><path style="opacity:1" fill="#ffd61d" d="M 234.5,237.5 C 229.253,233.901 223.92,233.734 218.5,237C 216.946,238.892 215.112,240.392 213,241.5C 210.901,240.713 208.734,240.38 206.5,240.5C 199.835,233 193.335,225.333 187,217.5C 182.704,211.048 182.371,204.382 186,197.5C 190.587,189.996 194.92,182.329 199,174.5C 200.454,168.31 202.454,162.31 205,156.5C 209.105,153.106 213.605,152.606 218.5,155C 225.671,160.484 230.504,167.65 233,176.5C 238.494,196.69 238.994,217.023 234.5,237.5 Z"/></g>
<g><path style="opacity:1" fill="#0a0301" d="M 129.5,155.5 C 134.984,155.481 136.65,157.981 134.5,163C 127.369,164.211 125.702,161.711 129.5,155.5 Z"/></g>
<g><path style="opacity:1" fill="#fa9709" d="M 146.5,101.5 C 146.833,101.5 147.167,101.5 147.5,101.5C 147.334,108.508 147.5,115.508 148,122.5C 151.066,115.844 152.232,108.844 151.5,101.5C 153.167,101.5 154.833,101.5 156.5,101.5C 157.816,112.714 154.983,122.714 148,131.5C 147.168,139.853 147.335,148.187 148.5,156.5C 166.611,154.109 174.777,162.109 173,180.5C 170.602,194.949 162.102,201.616 147.5,200.5C 147.5,204.167 147.5,207.833 147.5,211.5C 147.167,211.5 146.833,211.5 146.5,211.5C 146.5,174.833 146.5,138.167 146.5,101.5 Z"/></g>
<g><path style="opacity:0.959" fill="#ffd41c" d="M 147.5,101.5 C 148.833,101.5 150.167,101.5 151.5,101.5C 152.232,108.844 151.066,115.844 148,122.5C 147.5,115.508 147.334,108.508 147.5,101.5 Z"/></g>
<g><path style="opacity:1" fill="#100602" d="M 377.5,155.5 C 384.004,155.138 385.671,157.638 382.5,163C 375.745,163.756 374.078,161.256 377.5,155.5 Z"/></g>
<g><path style="opacity:1" fill="#ff9805" d="M 364.5,159.5 C 364.5,161.5 364.5,163.5 364.5,165.5C 354.995,167.089 345.661,166.255 336.5,163C 326.452,161.692 318.119,164.858 311.5,172.5C 312.304,169.421 313.304,166.421 314.5,163.5C 319.44,159.534 325.107,157.534 331.5,157.5C 339.642,158.205 347.642,159.539 355.5,161.5C 358.737,161.654 361.737,160.987 364.5,159.5 Z"/></g>
<g><path style="opacity:1" fill="#ff9802" d="M 449.5,157.5 C 449.5,159.167 449.5,160.833 449.5,162.5C 438.378,168.419 435.545,177.085 441,188.5C 443.177,191.523 446.011,193.523 449.5,194.5C 449.5,196.167 449.5,197.833 449.5,199.5C 444.191,198.704 440.025,196.038 437,191.5C 429.621,175.924 433.788,164.591 449.5,157.5 Z"/></g>
<g><path style="opacity:1" fill="#ffd61c" d="M 150.5,160.5 C 161.518,158.862 167.518,163.528 168.5,174.5C 168.391,188.61 161.391,195.61 147.5,195.5C 147.5,184.167 147.5,172.833 147.5,161.5C 148.791,161.737 149.791,161.404 150.5,160.5 Z"/></g>
<g><path style="opacity:1" fill="#ffd61d" d="M 364.5,165.5 C 364.5,180.167 364.5,194.833 364.5,209.5C 356.751,210.52 349.084,212.02 341.5,214C 322.381,217.115 310.714,209.282 306.5,190.5C 307.764,184.376 309.431,178.376 311.5,172.5C 318.119,164.858 326.452,161.692 336.5,163C 345.661,166.255 354.995,167.089 364.5,165.5 Z"/></g>
<g><path style="opacity:0.884" fill="#ffd61c" d="M 449.5,162.5 C 449.5,173.167 449.5,183.833 449.5,194.5C 446.011,193.523 443.177,191.523 441,188.5C 435.545,177.085 438.378,168.419 449.5,162.5 Z"/></g>
<g><path style="opacity:1" fill="#0f0502" d="M 129.5,173.5 C 135.643,174.026 136.976,176.86 133.5,182C 128.504,182.664 126.67,180.498 128,175.5C 128.717,174.956 129.217,174.289 129.5,173.5 Z"/></g>
<g><path style="opacity:1" fill="#120602" d="M 378.5,173.5 C 383.365,173.684 385.032,176.018 383.5,180.5C 379.751,183.418 377.085,182.585 375.5,178C 376.315,176.357 377.315,174.857 378.5,173.5 Z"/></g>
<g><path style="opacity:1" fill="#0b0401" d="M 128.5,192.5 C 135.536,191.603 137.203,194.103 133.5,200C 127.785,200.401 126.119,197.901 128.5,192.5 Z"/></g>
<g><path style="opacity:1" fill="#ff9805" d="M 306.5,190.5 C 310.714,209.282 322.381,217.115 341.5,214C 349.084,212.02 356.751,210.52 364.5,209.5C 364.5,210.167 364.5,210.833 364.5,211.5C 361.05,210.756 359.384,212.09 359.5,215.5C 353.222,216.88 346.889,218.047 340.5,219C 323.102,221.969 310.769,215.469 303.5,199.5C 303.928,196.215 304.928,193.215 306.5,190.5 Z"/></g>
<g><path style="opacity:1" fill="#0f0502" d="M 377.5,192.5 C 384.004,192.138 385.671,194.638 382.5,200C 375.745,200.756 374.078,198.256 377.5,192.5 Z"/></g>
<g><path style="opacity:1" fill="#ff9802" d="M 267.5,210.5 C 281.774,209.415 293.274,214.415 302,225.5C 308.619,241.096 303.786,251.263 287.5,256C 270.787,257.066 259.287,249.899 253,234.5C 250.81,226.504 252.977,220.004 259.5,215C 262.099,213.205 264.766,211.705 267.5,210.5 Z"/></g>
<g><path style="opacity:1" fill="#130c03" d="M 115.5,211.5 C 115.833,211.5 116.167,211.5 116.5,211.5C 126.5,211.5 136.5,211.5 146.5,211.5C 146.833,211.5 147.167,211.5 147.5,211.5C 149.39,211.297 150.89,211.963 152,213.5C 152.5,221.493 152.666,229.493 152.5,237.5C 152.634,239.292 152.301,240.958 151.5,242.5C 150.167,242.5 148.833,242.5 147.5,242.5C 147.167,242.5 146.833,242.5 146.5,242.5C 142.167,242.5 137.833,242.5 133.5,242.5C 133.663,244.857 133.497,247.19 133,249.5C 132,250.833 131,250.833 130,249.5C 129.503,247.19 129.337,244.857 129.5,242.5C 125.167,242.5 120.833,242.5 116.5,242.5C 116.167,242.5 115.833,242.5 115.5,242.5C 113.856,242.714 112.356,242.38 111,241.5C 110.502,238.518 110.335,235.518 110.5,232.5C 110.5,230.833 110.5,229.167 110.5,227.5C 110.334,222.821 110.501,218.155 111,213.5C 112.11,211.963 113.61,211.297 115.5,211.5 Z"/></g>
<g><path style="opacity:1" fill="#0b0501" d="M 364.5,211.5 C 374.833,211.5 385.167,211.5 395.5,211.5C 397.144,211.286 398.644,211.62 400,212.5C 400.497,214.81 400.663,217.143 400.5,219.5C 400.5,221.5 400.5,223.5 400.5,225.5C 400.666,230.844 400.499,236.177 400,241.5C 398.644,242.38 397.144,242.714 395.5,242.5C 391.167,242.5 386.833,242.5 382.5,242.5C 382.663,244.857 382.497,247.19 382,249.5C 380.667,250.833 379.333,250.833 378,249.5C 377.503,247.19 377.337,244.857 377.5,242.5C 373.167,242.5 368.833,242.5 364.5,242.5C 360.5,243.167 358.833,241.5 359.5,237.5C 359.5,230.167 359.5,222.833 359.5,215.5C 359.384,212.09 361.05,210.756 364.5,211.5 Z"/></g>
<g><path style="opacity:1" fill="#ffd61c" d="M 268.5,215.5 C 279.094,214.975 288.261,218.308 296,225.5C 303.574,237.444 300.741,245.944 287.5,251C 273.926,252.131 264.093,246.631 258,234.5C 256.289,228.306 257.789,223.14 262.5,219C 264.432,217.541 266.432,216.375 268.5,215.5 Z"/></g>
<g><path style="opacity:1" fill="#6c2e19" d="M 146.5,237.5 C 146.5,230.833 146.5,224.167 146.5,217.5C 136.5,217.5 126.5,217.5 116.5,217.5C 116.5,224.167 116.5,230.833 116.5,237.5C 115.509,230.687 115.175,223.687 115.5,216.5C 126.167,216.5 136.833,216.5 147.5,216.5C 147.825,223.687 147.491,230.687 146.5,237.5 Z"/></g>
<g><path style="opacity:1" fill="#c0532c" d="M 146.5,237.5 C 142.167,237.5 137.833,237.5 133.5,237.5C 133.666,233.486 133.499,229.486 133,225.5C 132,224.167 131,224.167 130,225.5C 129.501,229.486 129.334,233.486 129.5,237.5C 125.167,237.5 120.833,237.5 116.5,237.5C 116.5,230.833 116.5,224.167 116.5,217.5C 126.5,217.5 136.5,217.5 146.5,217.5C 146.5,224.167 146.5,230.833 146.5,237.5 Z"/></g>
<g><path style="opacity:1" fill="#bf522c" d="M 364.5,216.5 C 374.833,216.5 385.167,216.5 395.5,216.5C 395.5,223.5 395.5,230.5 395.5,237.5C 391.167,237.5 386.833,237.5 382.5,237.5C 382.666,233.486 382.499,229.486 382,225.5C 380.667,224.167 379.333,224.167 378,225.5C 377.501,229.486 377.334,233.486 377.5,237.5C 373.167,237.5 368.833,237.5 364.5,237.5C 364.5,230.5 364.5,223.5 364.5,216.5 Z"/></g>
<g><path style="opacity:0.993" fill="#ff9802" d="M 110.5,227.5 C 110.5,229.167 110.5,230.833 110.5,232.5C 107.813,232.664 105.146,232.497 102.5,232C 94.6863,228.284 86.5197,225.784 78,224.5C 72.5842,224.917 67.4175,226.251 62.5,228.5C 62.5,226.833 62.5,225.167 62.5,223.5C 69.4095,219.921 76.7428,218.755 84.5,220C 90.9422,222.055 97.2755,224.388 103.5,227C 105.81,227.497 108.143,227.663 110.5,227.5 Z"/></g>
<g><path style="opacity:0.985" fill="#fed61c" d="M 110.5,232.5 C 110.335,235.518 110.502,238.518 111,241.5C 112.356,242.38 113.856,242.714 115.5,242.5C 115.666,247.179 115.499,251.845 115,256.5C 103.984,266.924 91.8174,275.757 78.5,283C 70.6202,293.776 70.6202,304.609 78.5,315.5C 74.5,315.5 70.5,315.5 66.5,315.5C 65.1639,313.99 63.9973,312.323 63,310.5C 62.5,283.169 62.3334,255.835 62.5,228.5C 67.4175,226.251 72.5842,224.917 78,224.5C 86.5197,225.784 94.6863,228.284 102.5,232C 105.146,232.497 107.813,232.664 110.5,232.5 Z"/></g>
<g><path style="opacity:1" fill="#ff9802" d="M 449.5,233.5 C 449.5,235.833 449.5,238.167 449.5,240.5C 444.336,245.496 439.003,250.329 433.5,255C 426.824,258.67 420.491,262.836 414.5,267.5C 408.735,274.129 407.902,281.462 412,289.5C 419.46,300.135 429.627,303.968 442.5,301C 444.743,299.864 447.076,299.03 449.5,298.5C 449.5,300.5 449.5,302.5 449.5,304.5C 444.451,305.887 439.284,306.554 434,306.5C 428.433,307.038 423.266,305.871 418.5,303C 403.417,292.357 400.75,279.357 410.5,264C 416.897,259.273 423.564,254.94 430.5,251C 437.076,245.251 443.409,239.417 449.5,233.5 Z"/></g>
<g><path style="opacity:1" fill="#f9f9f9" d="M 234.5,237.5 C 235.833,238.5 237.167,239.5 238.5,240.5C 246.333,252.588 246,264.588 237.5,276.5C 236.248,278.001 235.248,279.668 234.5,281.5C 232.221,284.442 229.221,286.109 225.5,286.5C 223.5,286.5 221.5,286.5 219.5,286.5C 213.605,283.882 207.938,280.716 202.5,277C 199.386,273.94 196.886,270.44 195,266.5C 191.244,256.375 193.41,248.041 201.5,241.5C 203.117,240.962 204.784,240.629 206.5,240.5C 208.734,240.38 210.901,240.713 213,241.5C 215.112,240.392 216.946,238.892 218.5,237C 223.92,233.734 229.253,233.901 234.5,237.5 Z"/></g>
<g><path style="opacity:1" fill="#f8960b" d="M 152.5,237.5 C 159.133,241.082 162.466,246.748 162.5,254.5C 159.653,267.872 154.82,280.538 148,292.5C 147.5,300.159 147.334,307.826 147.5,315.5C 147.167,315.5 146.833,315.5 146.5,315.5C 146.5,302.5 146.5,289.5 146.5,276.5C 146.5,274.5 146.5,272.5 146.5,270.5C 146.5,261.167 146.5,251.833 146.5,242.5C 146.833,242.5 147.167,242.5 147.5,242.5C 147.333,255.504 147.5,268.504 148,281.5C 152.314,272.879 155.481,263.879 157.5,254.5C 157.578,249.368 155.578,245.368 151.5,242.5C 152.301,240.958 152.634,239.292 152.5,237.5 Z"/></g>
<g><path style="opacity:1" fill="#fe9702" d="M 359.5,237.5 C 358.833,241.5 360.5,243.167 364.5,242.5C 364.5,243.833 364.5,245.167 364.5,246.5C 357.301,240.114 349.968,239.947 342.5,246C 333.355,253.79 328.022,263.624 326.5,275.5C 328.208,293.034 337.875,300.868 355.5,299C 358.647,298.119 361.647,296.953 364.5,295.5C 364.5,297.5 364.5,299.5 364.5,301.5C 359.517,303.37 354.351,304.37 349,304.5C 328.762,301.587 319.762,289.921 322,269.5C 324.362,261.774 328.029,254.774 333,248.5C 339.704,239.39 348.538,235.723 359.5,237.5 Z"/></g>
<g><path style="opacity:1" fill="#095fff" d="M 222.5,241.5 C 225.187,241.336 227.854,241.503 230.5,242C 235.78,245.227 238.113,249.894 237.5,256C 233.698,284.332 221.865,288.166 202,267.5C 197.986,259.958 198.819,253.124 204.5,247C 209.438,246.313 213.605,247.813 217,251.5C 217.576,247.337 219.41,244.004 222.5,241.5 Z"/></g>
<g><path style="opacity:0.967" fill="#ffd61c" d="M 449.5,240.5 C 449.5,259.833 449.5,279.167 449.5,298.5C 447.076,299.03 444.743,299.864 442.5,301C 429.627,303.968 419.46,300.135 412,289.5C 407.902,281.462 408.735,274.129 414.5,267.5C 420.491,262.836 426.824,258.67 433.5,255C 439.003,250.329 444.336,245.496 449.5,240.5 Z"/></g>
<g><path style="opacity:1" fill="#fed41c" d="M 147.5,242.5 C 148.833,242.5 150.167,242.5 151.5,242.5C 155.578,245.368 157.578,249.368 157.5,254.5C 155.481,263.879 152.314,272.879 148,281.5C 147.5,268.504 147.333,255.504 147.5,242.5 Z"/></g>
<g><path style="opacity:1" fill="#ffd61c" d="M 364.5,246.5 C 364.5,254.167 364.5,261.833 364.5,269.5C 364.5,271.833 364.5,274.167 364.5,276.5C 364.5,282.833 364.5,289.167 364.5,295.5C 361.647,296.953 358.647,298.119 355.5,299C 337.875,300.868 328.208,293.034 326.5,275.5C 328.022,263.624 333.355,253.79 342.5,246C 349.968,239.947 357.301,240.114 364.5,246.5 Z"/></g>
<g><path style="opacity:1" fill="#c0532c" d="M 116.5,242.5 C 120.833,242.5 125.167,242.5 129.5,242.5C 129.337,244.857 129.503,247.19 130,249.5C 131,250.833 132,250.833 133,249.5C 133.497,247.19 133.663,244.857 133.5,242.5C 137.833,242.5 142.167,242.5 146.5,242.5C 146.5,251.833 146.5,261.167 146.5,270.5C 136.5,277.167 126.5,277.167 116.5,270.5C 116.5,261.167 116.5,251.833 116.5,242.5 Z"/></g>
<g><path style="opacity:1" fill="#c2542d" d="M 364.5,242.5 C 368.833,242.5 373.167,242.5 377.5,242.5C 377.337,244.857 377.503,247.19 378,249.5C 379.333,250.833 380.667,250.833 382,249.5C 382.497,247.19 382.663,244.857 382.5,242.5C 386.833,242.5 391.167,242.5 395.5,242.5C 395.5,251.5 395.5,260.5 395.5,269.5C 385.167,277.5 374.833,277.5 364.5,269.5C 364.5,261.833 364.5,254.167 364.5,246.5C 364.5,245.167 364.5,243.833 364.5,242.5 Z"/></g>
<g><path style="opacity:1" fill="#f99709" d="M 115.5,242.5 C 115.833,242.5 116.167,242.5 116.5,242.5C 116.5,251.833 116.5,261.167 116.5,270.5C 116.5,272.5 116.5,274.5 116.5,276.5C 116.5,289.5 116.5,302.5 116.5,315.5C 116.167,315.5 115.833,315.5 115.5,315.5C 115.667,298.163 115.5,280.83 115,263.5C 106.126,271.689 96.293,278.522 85.5,284C 76.5455,291.375 75.0455,300.209 81,310.5C 82.517,312.24 84.017,313.906 85.5,315.5C 83.1667,315.5 80.8333,315.5 78.5,315.5C 70.6202,304.609 70.6202,293.776 78.5,283C 91.8174,275.757 103.984,266.924 115,256.5C 115.499,251.845 115.666,247.179 115.5,242.5 Z"/></g>
<g><path style="opacity:1" fill="#090301" d="M 128.5,258.5 C 135.536,257.603 137.203,260.103 133.5,266C 127.785,266.401 126.119,263.901 128.5,258.5 Z"/></g>
<g><path style="opacity:1" fill="#100602" d="M 377.5,258.5 C 384.004,258.138 385.671,260.638 382.5,266C 375.745,266.756 374.078,264.256 377.5,258.5 Z"/></g>
<g><path style="opacity:1" fill="#ffd61c" d="M 115.5,315.5 C 105.5,315.5 95.5,315.5 85.5,315.5C 84.017,313.906 82.517,312.24 81,310.5C 75.0455,300.209 76.5455,291.375 85.5,284C 96.293,278.522 106.126,271.689 115,263.5C 115.5,280.83 115.667,298.163 115.5,315.5 Z"/></g>
<g><path style="opacity:1" fill="#0b0401" d="M 364.5,269.5 C 374.833,277.5 385.167,277.5 395.5,269.5C 395.5,271.833 395.5,274.167 395.5,276.5C 385.167,281.833 374.833,281.833 364.5,276.5C 364.5,274.167 364.5,271.833 364.5,269.5 Z"/></g>
<g><path style="opacity:1" fill="#0c0402" d="M 116.5,270.5 C 126.5,277.167 136.5,277.167 146.5,270.5C 146.5,272.5 146.5,274.5 146.5,276.5C 136.5,281.833 126.5,281.833 116.5,276.5C 116.5,274.5 116.5,272.5 116.5,270.5 Z"/></g>
<g><path style="opacity:1" fill="#ff9802" d="M 219.5,286.5 C 221.5,286.5 223.5,286.5 225.5,286.5C 222.448,292.39 218.781,297.89 214.5,303C 207.61,307.111 201.777,305.944 197,299.5C 194.603,292.935 191.103,287.102 186.5,282C 180.866,279.224 176.366,280.391 173,285.5C 168.266,294.912 166.099,304.912 166.5,315.5C 164.833,315.5 163.167,315.5 161.5,315.5C 160.815,302.398 163.982,290.398 171,279.5C 181.211,273.005 189.544,275.005 196,285.5C 203.123,305.078 210.956,305.411 219.5,286.5 Z"/></g>
<g><path style="opacity:1" fill="#ff9802" d="M 296.5,315.5 C 294.5,315.5 292.5,315.5 290.5,315.5C 293.083,311.411 296.25,307.744 300,304.5C 303.623,294.947 301.457,287.114 293.5,281C 286.415,278.128 280.915,279.961 277,286.5C 272.151,295.561 269.651,305.228 269.5,315.5C 267.833,315.5 266.167,315.5 264.5,315.5C 264.521,304.084 267.354,293.417 273,283.5C 279.74,273.841 288.24,272.007 298.5,278C 306.019,284.97 308.519,293.47 306,303.5C 303.381,307.95 300.214,311.95 296.5,315.5 Z"/></g>
<g><path style="opacity:1" fill="#c4542d" d="M 364.5,276.5 C 374.833,281.833 385.167,281.833 395.5,276.5C 395.5,289.5 395.5,302.5 395.5,315.5C 385.167,315.5 374.833,315.5 364.5,315.5C 364.5,310.833 364.5,306.167 364.5,301.5C 364.5,299.5 364.5,297.5 364.5,295.5C 364.5,289.167 364.5,282.833 364.5,276.5 Z"/></g>
<g><path style="opacity:1" fill="#c4542d" d="M 116.5,276.5 C 126.5,281.833 136.5,281.833 146.5,276.5C 146.5,289.5 146.5,302.5 146.5,315.5C 136.5,315.5 126.5,315.5 116.5,315.5C 116.5,302.5 116.5,289.5 116.5,276.5 Z"/></g>
<g><path style="opacity:1" fill="#ff9803" d="M 237.5,276.5 C 246.387,277.888 251.387,283.054 252.5,292C 251.206,300.749 247.873,308.582 242.5,315.5C 240.833,315.5 239.167,315.5 237.5,315.5C 239.72,310.728 242.22,306.062 245,301.5C 248.925,294.645 248.092,288.479 242.5,283C 239.937,281.921 237.271,281.421 234.5,281.5C 235.248,279.668 236.248,278.001 237.5,276.5 Z"/></g>
<g><path style="opacity:1" fill="#ffd61c" d="M 290.5,315.5 C 283.5,315.5 276.5,315.5 269.5,315.5C 269.651,305.228 272.151,295.561 277,286.5C 280.915,279.961 286.415,278.128 293.5,281C 301.457,287.114 303.623,294.947 300,304.5C 296.25,307.744 293.083,311.411 290.5,315.5 Z"/></g>
<g><path style="opacity:1" fill="#ffd61c" d="M 225.5,286.5 C 229.221,286.109 232.221,284.442 234.5,281.5C 237.271,281.421 239.937,281.921 242.5,283C 248.092,288.479 248.925,294.645 245,301.5C 242.22,306.062 239.72,310.728 237.5,315.5C 213.833,315.5 190.167,315.5 166.5,315.5C 166.099,304.912 168.266,294.912 173,285.5C 176.366,280.391 180.866,279.224 186.5,282C 191.103,287.102 194.603,292.935 197,299.5C 201.777,305.944 207.61,307.111 214.5,303C 218.781,297.89 222.448,292.39 225.5,286.5 Z"/></g>
<g><path style="opacity:0.987" fill="#005eff" d="M 45.5,315.5 C 30.8855,331.782 15.5521,347.449 -0.5,362.5C -0.5,348.5 -0.5,334.5 -0.5,320.5C 0.646381,318.525 2.31305,317.025 4.5,316C 18.1626,315.5 31.8293,315.333 45.5,315.5 Z"/></g>
<g><path style="opacity:1" fill="#05a3fe" d="M 45.5,315.5 C 52.5,315.5 59.5,315.5 66.5,315.5C 70.5,315.5 74.5,315.5 78.5,315.5C 80.8333,315.5 83.1667,315.5 85.5,315.5C 95.5,315.5 105.5,315.5 115.5,315.5C 115.833,315.5 116.167,315.5 116.5,315.5C 126.5,315.5 136.5,315.5 146.5,315.5C 146.833,315.5 147.167,315.5 147.5,315.5C 152.167,315.5 156.833,315.5 161.5,315.5C 163.167,315.5 164.833,315.5 166.5,315.5C 190.167,315.5 213.833,315.5 237.5,315.5C 239.167,315.5 240.833,315.5 242.5,315.5C 249.833,315.5 257.167,315.5 264.5,315.5C 266.167,315.5 267.833,315.5 269.5,315.5C 276.5,315.5 283.5,315.5 290.5,315.5C 292.5,315.5 294.5,315.5 296.5,315.5C 319.167,315.5 341.833,315.5 364.5,315.5C 374.833,315.5 385.167,315.5 395.5,315.5C 411.833,315.5 428.167,315.5 444.5,315.5C 451.167,315.5 457.833,315.5 464.5,315.5C 479.833,331.5 495.5,347.167 511.5,362.5C 511.5,375.167 511.5,387.833 511.5,400.5C 488.5,400.5 465.5,400.5 442.5,400.5C 442.827,390.985 442.494,381.652 441.5,372.5C 441.082,371.778 440.416,371.278 439.5,371C 421.833,370.333 404.167,370.333 386.5,371C 386,371.5 385.5,372 385,372.5C 384.5,381.827 384.334,391.161 384.5,400.5C 362.5,400.5 340.5,400.5 318.5,400.5C 318.666,396.154 318.499,391.821 318,387.5C 312.528,379.052 306.194,378.386 299,385.5C 298.831,399.006 298.331,412.34 297.5,425.5C 297.5,418.833 297.5,412.167 297.5,405.5C 297.5,403.833 297.5,402.167 297.5,400.5C 269.5,400.5 241.5,400.5 213.5,400.5C 213.5,402.167 213.5,403.833 213.5,405.5C 213.5,412.167 213.5,418.833 213.5,425.5C 212.669,412.34 212.169,399.006 212,385.5C 204.72,378.286 198.387,378.953 193,387.5C 192.501,391.821 192.334,396.154 192.5,400.5C 170.5,400.5 148.5,400.5 126.5,400.5C 126.666,391.161 126.5,381.827 126,372.5C 125.5,372 125,371.5 124.5,371C 106.5,370.333 88.5,370.333 70.5,371C 69.944,371.383 69.6107,371.883 69.5,372.5C 68.5064,381.652 68.1731,390.985 68.5,400.5C 45.5,400.5 22.5,400.5 -0.5,400.5C -0.5,387.833 -0.5,375.167 -0.5,362.5C 15.5521,347.449 30.8855,331.782 45.5,315.5 Z"/></g>
<g><path style="opacity:0.987" fill="#005fff" d="M 464.5,315.5 C 478.504,315.333 492.504,315.5 506.5,316C 508.659,317.059 510.326,318.559 511.5,320.5C 511.5,334.5 511.5,348.5 511.5,362.5C 495.5,347.167 479.833,331.5 464.5,315.5 Z"/></g>
<g><path style="opacity:1" fill="#fd9504" d="M 126.5,400.5 C 122.5,400.5 118.5,400.5 114.5,400.5C 114.666,395.156 114.499,389.823 114,384.5C 113.5,384 113,383.5 112.5,383C 102.5,382.333 92.5,382.333 82.5,383C 82,383.5 81.5,384 81,384.5C 80.5007,389.489 80.3341,394.489 80.5,399.5C 76.8333,399.5 73.1667,399.5 69.5,399.5C 69.5,390.5 69.5,381.5 69.5,372.5C 69.6107,371.883 69.944,371.383 70.5,371C 88.5,370.333 106.5,370.333 124.5,371C 125,371.5 125.5,372 126,372.5C 126.5,381.827 126.666,391.161 126.5,400.5 Z"/></g>
<g><path style="opacity:1" fill="#fd9503" d="M 441.5,372.5 C 441.5,381.5 441.5,390.5 441.5,399.5C 437.833,399.5 434.167,399.5 430.5,399.5C 434.503,384.169 428.836,378.503 413.5,382.5C 408.5,382.667 403.5,382.833 398.5,383C 398,383.5 397.5,384 397,384.5C 396.501,389.823 396.334,395.156 396.5,400.5C 392.5,400.5 388.5,400.5 384.5,400.5C 384.334,391.161 384.5,381.827 385,372.5C 385.5,372 386,371.5 386.5,371C 404.167,370.333 421.833,370.333 439.5,371C 440.416,371.278 441.082,371.778 441.5,372.5 Z"/></g>
<g><path style="opacity:1" fill="#c1963f" d="M 69.5,372.5 C 69.5,381.5 69.5,390.5 69.5,399.5C 73.1667,399.5 76.8333,399.5 80.5,399.5C 80.5,399.833 80.5,400.167 80.5,400.5C 76.5,400.5 72.5,400.5 68.5,400.5C 68.1731,390.985 68.5064,381.652 69.5,372.5 Z"/></g>
<g><path style="opacity:1" fill="#c19640" d="M 441.5,372.5 C 442.494,381.652 442.827,390.985 442.5,400.5C 438.5,400.5 434.5,400.5 430.5,400.5C 430.5,400.167 430.5,399.833 430.5,399.5C 434.167,399.5 437.833,399.5 441.5,399.5C 441.5,390.5 441.5,381.5 441.5,372.5 Z"/></g>
<g><path style="opacity:1" fill="#fbd622" d="M 213.5,425.5 C 213.953,426.458 214.619,427.292 215.5,428C 242.167,428.667 268.833,428.667 295.5,428C 296.381,427.292 297.047,426.458 297.5,425.5C 298.331,412.34 298.831,399.006 299,385.5C 306.194,378.386 312.528,379.052 318,387.5C 318.499,391.821 318.666,396.154 318.5,400.5C 318.5,402.167 318.5,403.833 318.5,405.5C 318.876,414.235 318.376,422.902 317,431.5C 314.096,440.07 308.263,445.57 299.5,448C 270.167,448.667 240.833,448.667 211.5,448C 202.737,445.57 196.904,440.07 194,431.5C 192.624,422.902 192.124,414.235 192.5,405.5C 192.5,403.833 192.5,402.167 192.5,400.5C 192.334,396.154 192.501,391.821 193,387.5C 198.387,378.953 204.72,378.286 212,385.5C 212.169,399.006 212.669,412.34 213.5,425.5 Z"/></g>
<g><path style="opacity:1" fill="#fed61c" d="M 114.5,400.5 C 114.5,402.167 114.5,403.833 114.5,405.5C 114.5,409.167 114.5,412.833 114.5,416.5C 103.167,416.5 91.8333,416.5 80.5,416.5C 80.5,412.833 80.5,409.167 80.5,405.5C 80.5,403.833 80.5,402.167 80.5,400.5C 80.5,400.167 80.5,399.833 80.5,399.5C 80.3341,394.489 80.5007,389.489 81,384.5C 81.5,384 82,383.5 82.5,383C 92.5,382.333 102.5,382.333 112.5,383C 113,383.5 113.5,384 114,384.5C 114.499,389.823 114.666,395.156 114.5,400.5 Z"/></g>
<g><path style="opacity:1" fill="#fed61c" d="M 430.5,399.5 C 430.5,399.833 430.5,400.167 430.5,400.5C 430.5,402.167 430.5,403.833 430.5,405.5C 430.5,409.167 430.5,412.833 430.5,416.5C 419.167,416.5 407.833,416.5 396.5,416.5C 396.5,412.833 396.5,409.167 396.5,405.5C 396.5,403.833 396.5,402.167 396.5,400.5C 396.334,395.156 396.501,389.823 397,384.5C 397.5,384 398,383.5 398.5,383C 403.5,382.833 408.5,382.667 413.5,382.5C 428.836,378.503 434.503,384.169 430.5,399.5 Z"/></g>
<g><path style="opacity:1" fill="#015ffe" d="M -0.5,400.5 C 22.5,400.5 45.5,400.5 68.5,400.5C 72.5,400.5 76.5,400.5 80.5,400.5C 80.5,402.167 80.5,403.833 80.5,405.5C 76.5,405.5 72.5,405.5 68.5,405.5C 45.5,405.5 22.5,405.5 -0.5,405.5C -0.5,403.833 -0.5,402.167 -0.5,400.5 Z"/></g>
<g><path style="opacity:1" fill="#025ffe" d="M 114.5,400.5 C 118.5,400.5 122.5,400.5 126.5,400.5C 148.5,400.5 170.5,400.5 192.5,400.5C 192.5,402.167 192.5,403.833 192.5,405.5C 170.5,405.5 148.5,405.5 126.5,405.5C 122.5,405.5 118.5,405.5 114.5,405.5C 114.5,403.833 114.5,402.167 114.5,400.5 Z"/></g>
<g><path style="opacity:1" fill="#005fff" d="M 297.5,405.5 C 269.5,405.5 241.5,405.5 213.5,405.5C 213.5,403.833 213.5,402.167 213.5,400.5C 241.5,400.5 269.5,400.5 297.5,400.5C 297.5,402.167 297.5,403.833 297.5,405.5 Z"/></g>
<g><path style="opacity:1" fill="#025ffe" d="M 318.5,400.5 C 340.5,400.5 362.5,400.5 384.5,400.5C 388.5,400.5 392.5,400.5 396.5,400.5C 396.5,402.167 396.5,403.833 396.5,405.5C 392.5,405.5 388.5,405.5 384.5,405.5C 362.5,405.5 340.5,405.5 318.5,405.5C 318.5,403.833 318.5,402.167 318.5,400.5 Z"/></g>
<g><path style="opacity:1" fill="#015ffe" d="M 430.5,400.5 C 434.5,400.5 438.5,400.5 442.5,400.5C 465.5,400.5 488.5,400.5 511.5,400.5C 511.5,402.167 511.5,403.833 511.5,405.5C 488.5,405.5 465.5,405.5 442.5,405.5C 438.5,405.5 434.5,405.5 430.5,405.5C 430.5,403.833 430.5,402.167 430.5,400.5 Z"/></g>
<g><path style="opacity:0.993" fill="#00a3fe" d="M -0.5,405.5 C 22.5,405.5 45.5,405.5 68.5,405.5C 68.037,418.932 68.537,432.265 70,445.5C 88.0931,446.659 106.26,446.825 124.5,446C 125,445.5 125.5,445 126,444.5C 126.5,431.504 126.667,418.504 126.5,405.5C 148.5,405.5 170.5,405.5 192.5,405.5C 192.124,414.235 192.624,422.902 194,431.5C 196.904,440.07 202.737,445.57 211.5,448C 240.833,448.667 270.167,448.667 299.5,448C 308.263,445.57 314.096,440.07 317,431.5C 318.376,422.902 318.876,414.235 318.5,405.5C 340.5,405.5 362.5,405.5 384.5,405.5C 384.333,418.504 384.5,431.504 385,444.5C 385.5,445 386,445.5 386.5,446C 404.74,446.825 422.907,446.659 441,445.5C 442.463,432.265 442.963,418.932 442.5,405.5C 465.5,405.5 488.5,405.5 511.5,405.5C 511.5,418.167 511.5,430.833 511.5,443.5C 495.5,458.833 479.833,474.5 464.5,490.5C 325.167,490.5 185.833,490.5 46.5,490.5C 31.1667,474.5 15.5,458.833 -0.5,443.5C -0.5,430.833 -0.5,418.167 -0.5,405.5 Z"/></g>
<g><path style="opacity:1" fill="#f59306" d="M 68.5,405.5 C 72.5,405.5 76.5,405.5 80.5,405.5C 80.5,409.167 80.5,412.833 80.5,416.5C 91.8333,416.5 103.167,416.5 114.5,416.5C 114.5,412.833 114.5,409.167 114.5,405.5C 118.5,405.5 122.5,405.5 126.5,405.5C 126.667,418.504 126.5,431.504 126,444.5C 125.5,445 125,445.5 124.5,446C 106.26,446.825 88.0931,446.659 70,445.5C 68.537,432.265 68.037,418.932 68.5,405.5 Z"/></g>
<g><path style="opacity:1" fill="#17a4fb" d="M 213.5,405.5 C 241.5,405.5 269.5,405.5 297.5,405.5C 297.5,412.167 297.5,418.833 297.5,425.5C 297.047,426.458 296.381,427.292 295.5,428C 268.833,428.667 242.167,428.667 215.5,428C 214.619,427.292 213.953,426.458 213.5,425.5C 213.5,418.833 213.5,412.167 213.5,405.5 Z"/></g>
<g><path style="opacity:1" fill="#f59306" d="M 384.5,405.5 C 388.5,405.5 392.5,405.5 396.5,405.5C 396.5,409.167 396.5,412.833 396.5,416.5C 407.833,416.5 419.167,416.5 430.5,416.5C 430.5,412.833 430.5,409.167 430.5,405.5C 434.5,405.5 438.5,405.5 442.5,405.5C 442.963,418.932 442.463,432.265 441,445.5C 422.907,446.659 404.74,446.825 386.5,446C 386,445.5 385.5,445 385,444.5C 384.5,431.504 384.333,418.504 384.5,405.5 Z"/></g>
<g><path style="opacity:1" fill="#000000" d="M 78.5,417.5 C 91.1667,417.5 103.833,417.5 116.5,417.5C 116.5,418.833 116.5,420.167 116.5,421.5C 103.833,421.5 91.1667,421.5 78.5,421.5C 78.5,420.167 78.5,418.833 78.5,417.5 Z"/></g>
<g><path style="opacity:1" fill="#000000" d="M 394.5,417.5 C 407.167,417.5 419.833,417.5 432.5,417.5C 432.5,418.833 432.5,420.167 432.5,421.5C 419.833,421.5 407.167,421.5 394.5,421.5C 394.5,420.167 394.5,418.833 394.5,417.5 Z"/></g>
<g><path style="opacity:1" fill="#ffd61c" d="M 81.5,423.5 C 91.992,422.341 102.659,422.175 113.5,423C 109.165,429.537 103.831,435.037 97.5,439.5C 96.8333,439.333 96.1667,439.167 95.5,439C 90.9676,433.638 86.301,428.472 81.5,423.5 Z"/></g>
<g><path style="opacity:1" fill="#ffd51c" d="M 397.5,423.5 C 407.992,422.341 418.659,422.175 429.5,423C 427,426.167 424.5,429.333 422,432.5C 419.577,435.432 416.743,437.765 413.5,439.5C 412.833,439.333 412.167,439.167 411.5,439C 406.699,433.855 402.033,428.688 397.5,423.5 Z"/></g>
<g><path style="opacity:0.982" fill="#005eff" d="M -0.5,443.5 C 15.5,458.833 31.1667,474.5 46.5,490.5C 32.8293,490.667 19.1626,490.5 5.5,490C 3.34004,488.668 1.34004,487.168 -0.5,485.5C -0.5,471.5 -0.5,457.5 -0.5,443.5 Z"/></g>
<g><path style="opacity:0.979" fill="#005eff" d="M 511.5,443.5 C 511.5,457.5 511.5,471.5 511.5,485.5C 509.66,487.168 507.66,488.668 505.5,490C 491.837,490.5 478.171,490.667 464.5,490.5C 479.833,474.5 495.5,458.833 511.5,443.5 Z"/></g>
</svg>
