<?xml version="1.0" encoding="UTF-8"?>
<!DOCTYPE svg PUBLIC "-//W3C//DTD SVG 1.1//EN" "http://www.w3.org/Graphics/SVG/1.1/DTD/svg11.dtd">
<svg xmlns="http://www.w3.org/2000/svg" version="1.1" width="512px" height="512px" style="shape-rendering:geometricPrecision; text-rendering:geometricPrecision; image-rendering:optimizeQuality; fill-rule:evenodd; clip-rule:evenodd" xmlns:xlink="http://www.w3.org/1999/xlink">
<g><path style="opacity:0.998" fill="#fa7592" d="M 135.5,-0.5 C 146.5,-0.5 157.5,-0.5 168.5,-0.5C 202.116,4.47479 231.116,18.8081 255.5,42.5C 278.878,19.4777 306.878,5.47775 339.5,0.5C 401.366,14.86 442.533,52.1933 463,112.5C 470.391,137.057 472.391,162.057 469,187.5C 463.483,245.4 444.149,298.066 411,345.5C 363.771,410.573 304.938,462.24 234.5,500.5C 170.195,465.388 115.028,419.055 69,361.5C 29.4999,310.824 6.33325,253.491 -0.5,189.5C -0.5,175.167 -0.5,160.833 -0.5,146.5C 6.3963,91.8587 32.7296,49.3587 78.5,19C 96.3641,8.76856 115.364,2.26856 135.5,-0.5 Z"/></g>
<g><path style="opacity:1" fill="#f55577" d="M 342.5,-0.5 C 353.5,-0.5 364.5,-0.5 375.5,-0.5C 429.133,8.62519 468.633,37.2919 494,85.5C 502.807,104.409 508.64,124.076 511.5,144.5C 511.5,158.833 511.5,173.167 511.5,187.5C 503.953,255.251 478.786,315.584 436,368.5C 386.147,428.472 326.647,476.139 257.5,511.5C 256.167,511.5 254.833,511.5 253.5,511.5C 247.003,508.086 240.67,504.419 234.5,500.5C 304.938,462.24 363.771,410.573 411,345.5C 444.149,298.066 463.483,245.4 469,187.5C 472.391,162.057 470.391,137.057 463,112.5C 442.533,52.1933 401.366,14.86 339.5,0.5C 340.791,0.737305 341.791,0.403972 342.5,-0.5 Z"/></g>
<g><path style="opacity:1" fill="#f9f1d6" d="M 304.5,113.5 C 326.482,112.639 339.982,122.973 345,144.5C 348.154,164.834 343.154,182.834 330,198.5C 318.113,210.909 303.946,214.742 287.5,210C 272.478,200.699 265.145,187.032 265.5,169C 267.163,142.222 280.163,123.722 304.5,113.5 Z"/></g>
<g><path style="opacity:1" fill="#f9f1d6" d="M 193.5,114.5 C 213.012,114.191 227.512,122.524 237,139.5C 249.56,162.446 248.06,184.279 232.5,205C 214.809,217.331 198.142,215.998 182.5,201C 166.732,182.758 161.899,161.925 168,138.5C 172.873,126.455 181.373,118.455 193.5,114.5 Z"/></g>
<g><path style="opacity:1" fill="#f9f1d6" d="M 364.5,201.5 C 384.592,199.769 396.425,208.769 400,228.5C 400.967,252.916 390.467,270.249 368.5,280.5C 348.274,285.442 335.774,277.775 331,257.5C 328.625,230.565 339.791,211.898 364.5,201.5 Z"/></g>
<g><path style="opacity:1" fill="#f9f1d6" d="M 132.5,202.5 C 155.557,202.708 171.057,213.708 179,235.5C 184.35,252.264 180.85,266.764 168.5,279C 155.002,285.91 142.335,284.576 130.5,275C 110.661,257.14 106.495,236.307 118,212.5C 121.977,207.774 126.811,204.441 132.5,202.5 Z"/></g>
<g><path style="opacity:1" fill="#f9f1d6" d="M 245.5,229.5 C 281.358,228.852 300.524,246.519 303,282.5C 308.747,286.959 314.914,290.793 321.5,294C 341.802,312.55 344.968,333.717 331,357.5C 318.915,372.948 303.082,379.115 283.5,376C 274.727,372.015 265.56,369.848 256,369.5C 252.5,369.667 249,369.833 245.5,370C 239.5,372 233.5,374 227.5,376C 198.374,378.531 180.207,365.698 173,337.5C 171.252,313.499 181.419,296.666 203.5,287C 206.106,285.062 207.939,282.562 209,279.5C 209.249,253.961 221.416,237.294 245.5,229.5 Z"/></g>
</svg>
