<?xml version="1.0" encoding="UTF-8"?>
<!DOCTYPE svg PUBLIC "-//W3C//DTD SVG 1.1//EN" "http://www.w3.org/Graphics/SVG/1.1/DTD/svg11.dtd">
<svg xmlns="http://www.w3.org/2000/svg" version="1.1" width="512px" height="512px" style="shape-rendering:geometricPrecision; text-rendering:geometricPrecision; image-rendering:optimizeQuality; fill-rule:evenodd; clip-rule:evenodd" xmlns:xlink="http://www.w3.org/1999/xlink">
<g><path style="opacity:0.945" fill="#8a9aa8" d="M 475.5,183.5 C 469.293,191.723 462.626,199.723 455.5,207.5C 447.759,213.916 439.759,219.916 431.5,225.5C 410.965,235.74 389.298,239.406 366.5,236.5C 362.577,230.863 362.577,225.197 366.5,219.5C 377.799,221.691 389.132,221.525 400.5,219C 405.211,218.249 409.544,216.749 413.5,214.5C 424.891,211.643 434.557,205.976 442.5,197.5C 450.784,190.562 457.117,182.229 461.5,172.5C 479.288,135.833 475.454,101.5 450,69.5C 415.489,35.5217 376.656,29.6884 333.5,52C 325.416,56.9157 318.416,63.0824 312.5,70.5C 306.731,75.3333 302.398,81.3333 299.5,88.5C 297.648,91.5507 296.314,94.884 295.5,98.5C 292.941,105.959 291.275,113.626 290.5,121.5C 285.299,124.262 280.299,123.762 275.5,120C 274.748,119.329 274.414,118.496 274.5,117.5C 275.277,109.611 276.944,101.944 279.5,94.5C 283.966,82.8937 289.966,72.227 297.5,62.5C 319.016,35.9734 347.016,22.64 381.5,22.5C 428.446,23.9785 461.613,45.9785 481,88.5C 492.98,120.934 491.147,152.601 475.5,183.5 Z M 295.5,98.5 C 297.61,99.4525 298.777,101.119 299,103.5C 300.72,111.725 297.887,117.725 290.5,121.5C 291.275,113.626 292.941,105.959 295.5,98.5 Z"/></g>
<g><path style="opacity:0.989" fill="#6b7987" d="M 297.5,62.5 C 289.966,72.227 283.966,82.8937 279.5,94.5C 273.559,96.6701 270.226,101.003 269.5,107.5C 270.138,111.443 271.805,114.777 274.5,117.5C 274.414,118.496 274.748,119.329 275.5,120C 280.299,123.762 285.299,124.262 290.5,121.5C 297.887,117.725 300.72,111.725 299,103.5C 298.777,101.119 297.61,99.4525 295.5,98.5C 296.314,94.884 297.648,91.5507 299.5,88.5C 303.089,92.6719 305.922,97.3386 308,102.5C 308.814,127.876 308.648,153.209 307.5,178.5C 291.229,195.272 274.729,211.938 258,228.5C 254.612,233.048 251.445,237.714 248.5,242.5C 207.701,282.799 167.035,323.299 126.5,364C 114.655,370.895 102.655,371.228 90.5,365C 69.5,344.667 48.5,324.333 27.5,304C 19.0384,299.379 10.705,299.546 2.5,304.5C 1.66929,301.341 0.669289,298.341 -0.5,295.5C -0.5,288.5 -0.5,281.5 -0.5,274.5C 1.74612,265.005 5.91278,256.338 12,248.5C 71.8608,188.306 132.027,128.472 192.5,69C 199.278,64.8055 206.612,62.1388 214.5,61C 240.5,60.3333 266.5,60.3333 292.5,61C 294.247,61.3519 295.914,61.8519 297.5,62.5 Z M 279.5,94.5 C 276.944,101.944 275.277,109.611 274.5,117.5C 271.805,114.777 270.138,111.443 269.5,107.5C 270.226,101.003 273.559,96.6701 279.5,94.5 Z M 295.5,98.5 C 297.61,99.4525 298.777,101.119 299,103.5C 300.72,111.725 297.887,117.725 290.5,121.5C 291.275,113.626 292.941,105.959 295.5,98.5 Z"/></g>
<g><path style="opacity:1" fill="#35404a" d="M 312.5,70.5 C 322.1,76.9976 328.266,85.9976 331,97.5C 331.497,99.8098 331.663,102.143 331.5,104.5C 331.833,124.178 331.5,143.845 330.5,163.5C 322.305,167.863 314.805,173.196 308,179.5C 307.601,179.272 307.435,178.938 307.5,178.5C 308.648,153.209 308.814,127.876 308,102.5C 305.922,97.3386 303.089,92.6719 299.5,88.5C 302.398,81.3333 306.731,75.3333 312.5,70.5 Z"/></g>
<g><path style="opacity:0.993" fill="#4c5866" d="M 331.5,104.5 C 332.167,123.338 332.833,142.338 333.5,161.5C 356.617,150.258 380.95,146.258 406.5,149.5C 403.823,163.314 407.823,174.814 418.5,184C 426.689,188.259 434.689,192.759 442.5,197.5C 434.557,205.976 424.891,211.643 413.5,214.5C 403.818,209.663 393.485,207.83 382.5,209C 375.269,209.772 369.935,213.272 366.5,219.5C 362.577,225.197 362.577,230.863 366.5,236.5C 369.006,241.172 372.673,244.672 377.5,247C 384.099,248.658 390.765,249.992 397.5,251C 402.667,253.5 406.5,257.333 409,262.5C 410.658,269.099 411.992,275.765 413,282.5C 421.932,297.286 433.266,299.619 447,289.5C 450.684,284.098 452.184,278.098 451.5,271.5C 451.218,253.3 444.552,237.967 431.5,225.5C 439.759,219.916 447.759,213.916 455.5,207.5C 483.115,240.855 487.615,277.188 469,316.5C 465.724,322.108 462.057,327.442 458,332.5C 442.833,347.667 427.667,362.833 412.5,378C 403.662,385.021 393.662,387.354 382.5,385C 378.705,383.269 375.038,381.269 371.5,379C 341.5,349 311.5,319 281.5,289C 270.212,280.638 258.212,279.471 245.5,285.5C 244.978,283.781 243.978,282.448 242.5,281.5C 243.299,274.246 243.799,266.912 244,259.5C 244.71,253.599 246.544,248.099 249.5,243C 249.272,242.601 248.938,242.435 248.5,242.5C 251.445,237.714 254.612,233.048 258,228.5C 274.729,211.938 291.229,195.272 307.5,178.5C 307.435,178.938 307.601,179.272 308,179.5C 314.805,173.196 322.305,167.863 330.5,163.5C 331.5,143.845 331.833,124.178 331.5,104.5 Z M 413.5,214.5 C 409.544,216.749 405.211,218.249 400.5,219C 389.132,221.525 377.799,221.691 366.5,219.5C 369.935,213.272 375.269,209.772 382.5,209C 393.485,207.83 403.818,209.663 413.5,214.5 Z M 431.5,225.5 C 444.552,237.967 451.218,253.3 451.5,271.5C 452.184,278.098 450.684,284.098 447,289.5C 433.266,299.619 421.932,297.286 413,282.5C 411.992,275.765 410.658,269.099 409,262.5C 406.5,257.333 402.667,253.5 397.5,251C 390.765,249.992 384.099,248.658 377.5,247C 372.673,244.672 369.006,241.172 366.5,236.5C 389.298,239.406 410.965,235.74 431.5,225.5 Z"/></g>
<g><path style="opacity:1" fill="#35404a" d="M 86.5,335.5 C 103.579,316.918 121.246,298.752 139.5,281C 122.579,264.581 106.246,247.748 90.5,230.5C 93.5,226.833 96.8333,223.5 100.5,220.5C 116.965,236.465 133.299,252.632 149.5,269C 150.167,269.667 150.833,269.667 151.5,269C 167.5,253 183.5,237 199.5,221C 182.965,204.298 166.299,187.798 149.5,171.5C 152.833,167.5 156.5,163.833 160.5,160.5C 176.965,176.465 193.299,192.632 209.5,209C 210.167,209.667 210.833,209.667 211.5,209C 222.014,198.653 232.348,188.153 242.5,177.5C 226.145,160.813 209.812,144.146 193.5,127.5C 197.997,122.17 202.997,117.337 208.5,113C 214.189,110.67 219.523,111.336 224.5,115C 242.333,132.833 260.167,150.667 278,168.5C 281.265,174.472 281.265,180.472 278,186.5C 223.833,240.667 169.667,294.833 115.5,349C 110.167,352.333 104.833,352.333 99.5,349C 94.9633,344.631 90.6299,340.131 86.5,335.5 Z"/></g>
<g><path style="opacity:1" fill="#4c5866" d="M 193.5,127.5 C 209.812,144.146 226.145,160.813 242.5,177.5C 232.348,188.153 222.014,198.653 211.5,209C 210.833,209.667 210.167,209.667 209.5,209C 193.299,192.632 176.965,176.465 160.5,160.5C 171.167,149.167 182.167,138.167 193.5,127.5 Z"/></g>
<g><path style="opacity:1" fill="#35404a" d="M 406.5,149.5 C 426.815,152.708 445.148,160.374 461.5,172.5C 457.117,182.229 450.784,190.562 442.5,197.5C 434.689,192.759 426.689,188.259 418.5,184C 407.823,174.814 403.823,163.314 406.5,149.5 Z"/></g>
<g><path style="opacity:1" fill="#4c5866" d="M 149.5,171.5 C 166.299,187.798 182.965,204.298 199.5,221C 183.5,237 167.5,253 151.5,269C 150.833,269.667 150.167,269.667 149.5,269C 133.299,252.632 116.965,236.465 100.5,220.5C 116.5,203.833 132.833,187.5 149.5,171.5 Z"/></g>
<g><path style="opacity:1" fill="#35404a" d="M 475.5,183.5 C 495.249,203.999 507.249,228.332 511.5,256.5C 511.5,266.5 511.5,276.5 511.5,286.5C 508.123,310.261 498.956,331.594 484,350.5C 464.441,370.727 444.274,390.227 423.5,409C 399.343,421.365 376.01,420.032 353.5,405C 344.329,396.661 335.329,388.161 326.5,379.5C 319.89,371.221 312.556,363.555 304.5,356.5C 297.445,348.444 289.779,341.11 281.5,334.5C 272.505,325.338 263.672,316.005 255,306.5C 250.204,300.241 247.037,293.241 245.5,285.5C 258.212,279.471 270.212,280.638 281.5,289C 311.5,319 341.5,349 371.5,379C 375.038,381.269 378.705,383.269 382.5,385C 393.662,387.354 403.662,385.021 412.5,378C 427.667,362.833 442.833,347.667 458,332.5C 462.057,327.442 465.724,322.108 469,316.5C 487.615,277.188 483.115,240.855 455.5,207.5C 462.626,199.723 469.293,191.723 475.5,183.5 Z"/></g>
<g><path style="opacity:1" fill="#4d5967" d="M 90.5,230.5 C 106.246,247.748 122.579,264.581 139.5,281C 121.246,298.752 103.579,316.918 86.5,335.5C 72.5348,322.035 58.7015,308.369 45,294.5C 40.9023,288.647 40.5689,282.647 44,276.5C 59.3681,260.965 74.8681,245.632 90.5,230.5 Z"/></g>
<g><path style="opacity:1" fill="#36414b" d="M 248.5,242.5 C 248.938,242.435 249.272,242.601 249.5,243C 246.544,248.099 244.71,253.599 244,259.5C 243.799,266.912 243.299,274.246 242.5,281.5C 209.701,314.799 176.701,347.965 143.5,381C 120.979,396.878 97.9788,397.545 74.5,383C 72.9586,381.629 71.6253,380.129 70.5,378.5C 51.8333,359.167 32.8333,340.167 13.5,321.5C 8.58909,316.688 4.92242,311.022 2.5,304.5C 10.705,299.546 19.0384,299.379 27.5,304C 48.5,324.333 69.5,344.667 90.5,365C 102.655,371.228 114.655,370.895 126.5,364C 167.035,323.299 207.701,282.799 248.5,242.5 Z"/></g>
<g><path style="opacity:0.008" fill="#48545f" d="M 13.5,321.5 C 32.8333,340.167 51.8333,359.167 70.5,378.5C 51.2516,360.754 32.4182,342.42 14,323.5C 13.5357,322.906 13.369,322.239 13.5,321.5 Z"/></g>
<g><path style="opacity:0.975" fill="#d2ccbe" d="M 281.5,334.5 C 289.779,341.11 297.445,348.444 304.5,356.5C 261.5,399.167 218.5,441.833 175.5,484.5C 173.766,482.91 172.6,480.91 172,478.5C 171.333,468.167 171.333,457.833 172,447.5C 175.362,439.469 180.862,433.302 188.5,429C 194.825,428.5 201.158,428.334 207.5,428.5C 207.334,422.158 207.5,415.825 208,409.5C 210.45,404.716 213.95,400.883 218.5,398C 225.492,397.5 232.492,397.334 239.5,397.5C 239.068,389.721 239.568,382.054 241,374.5C 254.368,360.965 267.868,347.631 281.5,334.5 Z"/></g>
<g><path style="opacity:0.967" fill="#a19b8d" d="M 304.5,356.5 C 312.556,363.555 319.89,371.221 326.5,379.5C 290.673,415.16 254.673,450.66 218.5,486C 211.677,488.963 204.511,490.129 197,489.5C 192.5,489.333 188,489.167 183.5,489C 180.316,488.246 177.649,486.746 175.5,484.5C 218.5,441.833 261.5,399.167 304.5,356.5 Z"/></g>
</svg>
