<?xml version="1.0" encoding="UTF-8"?>
<!DOCTYPE svg PUBLIC "-//W3C//DTD SVG 1.1//EN" "http://www.w3.org/Graphics/SVG/1.1/DTD/svg11.dtd">
<svg xmlns="http://www.w3.org/2000/svg" version="1.1" width="512px" height="512px" style="shape-rendering:geometricPrecision; text-rendering:geometricPrecision; image-rendering:optimizeQuality; fill-rule:evenodd; clip-rule:evenodd" xmlns:xlink="http://www.w3.org/1999/xlink">
<g><path style="opacity:1" fill="#d7991b" d="M 440.5,150.5 C 440.631,151.239 440.464,151.906 440,152.5C 418.277,125.773 393.111,102.94 364.5,84C 342.311,73.8278 318.978,68.4945 294.5,68C 257.741,66.6123 221.074,67.779 184.5,71.5C 238.996,59.4986 293.663,47.6653 348.5,36C 354.731,34.1517 361.065,33.485 367.5,34C 370.667,35.8333 373.167,38.3333 375,41.5C 396.845,77.8611 418.678,114.194 440.5,150.5 Z"/></g>
<g><path style="opacity:0.999" fill="#eebc42" d="M 440.5,150.5 C 452.465,170.144 464.465,189.811 476.5,209.5C 388.209,230.042 299.876,250.375 211.5,270.5C 176.833,213.833 142.167,157.167 107.5,100.5C 102.972,95.1327 103.639,90.6327 109.5,87C 134.474,81.6385 159.474,76.4719 184.5,71.5C 221.074,67.779 257.741,66.6123 294.5,68C 318.978,68.4945 342.311,73.8278 364.5,84C 393.111,102.94 418.277,125.773 440,152.5C 440.464,151.906 440.631,151.239 440.5,150.5 Z"/></g>
<g><path style="opacity:1" fill="#d7981a" d="M 204.5,86.5 C 205.552,86.3505 206.552,86.5172 207.5,87C 235.375,132.584 263.375,178.084 291.5,223.5C 270.172,229.832 248.839,236.166 227.5,242.5C 200.262,195.698 173.262,148.698 146.5,101.5C 146.709,100.914 147.043,100.414 147.5,100C 166.773,96.1767 185.773,91.6767 204.5,86.5 Z"/></g>
<g><path style="opacity:0.999" fill="#e8f8fd" d="M 107.5,100.5 C 142.167,157.167 176.833,213.833 211.5,270.5C 211.724,297.078 200.39,316.744 177.5,329.5C 164.997,308.498 152.997,287.165 141.5,265.5C 152.799,262.357 161.799,256.024 168.5,246.5C 164.14,237.78 159.807,229.114 155.5,220.5C 136.833,185.833 118.167,151.167 99.5,116.5C 101.659,110.849 104.326,105.516 107.5,100.5 Z"/></g>
<g><path style="opacity:1" fill="#c7c8c8" d="M 99.5,116.5 C 118.167,151.167 136.833,185.833 155.5,220.5C 154.222,220.782 153.222,221.449 152.5,222.5C 135.031,190.84 116.865,159.507 98,128.5C 96.872,126.655 96.372,124.655 96.5,122.5C 96.9925,120.181 97.9925,118.181 99.5,116.5 Z"/></g>
<g><path style="opacity:0.998" fill="#e8f9fe" d="M 96.5,122.5 C 96.372,124.655 96.872,126.655 98,128.5C 116.865,159.507 135.031,190.84 152.5,222.5C 149.877,226.791 146.544,230.457 142.5,233.5C 123.756,202.356 105.756,170.689 88.5,138.5C 90.6588,132.849 93.3255,127.516 96.5,122.5 Z"/></g>
<g><path style="opacity:1" fill="#c8c9c9" d="M 88.5,138.5 C 105.756,170.689 123.756,202.356 142.5,233.5C 142.027,234.906 141.027,235.573 139.5,235.5C 122.263,206.029 104.763,176.696 87,147.5C 86.3292,146.748 85.4959,146.414 84.5,146.5C 85.1098,145.609 85.4431,144.609 85.5,143.5C 86.2632,141.632 87.2632,139.965 88.5,138.5 Z"/></g>
<g><path style="opacity:0.991" fill="#edbc48" d="M 85.5,143.5 C 85.4431,144.609 85.1098,145.609 84.5,146.5C 82.1477,149.852 80.981,153.518 81,157.5C 100.941,193.724 121.108,229.724 141.5,265.5C 152.997,287.165 164.997,308.498 177.5,329.5C 175.38,332.079 174.047,335.079 173.5,338.5C 164.5,322.5 155.5,306.5 146.5,290.5C 125.845,250.516 104.178,211.183 81.5,172.5C 77.8943,165.622 74.561,158.622 71.5,151.5C 71.4062,149.088 72.4062,147.255 74.5,146C 78.2205,145.319 81.8872,144.486 85.5,143.5 Z"/></g>
<g><path style="opacity:1" fill="#e9f7fa" d="M 84.5,146.5 C 85.4959,146.414 86.3292,146.748 87,147.5C 104.763,176.696 122.263,206.029 139.5,235.5C 136.436,237.533 133.103,239.199 129.5,240.5C 133.752,243.545 138.252,246.211 143,248.5C 142.835,254.161 142.335,259.828 141.5,265.5C 121.108,229.724 100.941,193.724 81,157.5C 80.981,153.518 82.1477,149.852 84.5,146.5 Z"/></g>
<g><path style="opacity:0.995" fill="#917eeb" d="M 81.5,172.5 C 104.178,211.183 125.845,250.516 146.5,290.5C 130.167,277.833 113.833,265.167 97.5,252.5C 92.3224,249.078 87.3224,245.411 82.5,241.5C 79.5242,238.698 76.3575,236.031 73,233.5C 72.6174,234.056 72.1174,234.389 71.5,234.5C 71.1412,232.629 70.1412,231.129 68.5,230C 64.6172,226.902 60.6172,224.068 56.5,221.5C 49.7431,215.075 42.4098,209.408 34.5,204.5C 49.9563,193.599 65.623,182.932 81.5,172.5 Z"/></g>
<g><path style="opacity:0.983" fill="#6d5fdd" d="M 34.5,204.5 C 42.4098,209.408 49.7431,215.075 56.5,221.5C 50.758,247.901 49.0913,274.567 51.5,301.5C 46.2731,297.63 41.1064,293.63 36,289.5C 23.9175,261.361 23.4175,233.028 34.5,204.5 Z"/></g>
<g><path style="opacity:0.999" fill="#d7981b" d="M 476.5,209.5 C 475.846,222.446 472.846,234.78 467.5,246.5C 461.907,256.942 454.907,266.442 446.5,275C 364.14,294.674 281.807,314.174 199.5,333.5C 190.837,335.166 182.17,336.833 173.5,338.5C 174.047,335.079 175.38,332.079 177.5,329.5C 200.39,316.744 211.724,297.078 211.5,270.5C 299.876,250.375 388.209,230.042 476.5,209.5 Z"/></g>
<g><path style="opacity:1" fill="#e74349" d="M 155.5,220.5 C 159.807,229.114 164.14,237.78 168.5,246.5C 161.799,256.024 152.799,262.357 141.5,265.5C 142.335,259.828 142.835,254.161 143,248.5C 138.252,246.211 133.752,243.545 129.5,240.5C 133.103,239.199 136.436,237.533 139.5,235.5C 141.027,235.573 142.027,234.906 142.5,233.5C 146.544,230.457 149.877,226.791 152.5,222.5C 153.222,221.449 154.222,220.782 155.5,220.5 Z"/></g>
<g><path style="opacity:1" fill="#ebba47" d="M 56.5,221.5 C 60.6172,224.068 64.6172,226.902 68.5,230C 70.1412,231.129 71.1412,232.629 71.5,234.5C 64.4881,259.762 62.6547,285.429 66,311.5C 65.1841,310.177 64.0174,309.511 62.5,309.5C 61.4154,307.413 59.7488,306.08 57.5,305.5C 55.2228,304.551 53.2228,303.218 51.5,301.5C 49.0913,274.567 50.758,247.901 56.5,221.5 Z"/></g>
<g><path style="opacity:1" fill="#eebc41" d="M 425.5,225.5 C 447.355,226.587 455.522,237.587 450,258.5C 442.64,269.064 432.807,272.23 420.5,268C 409.467,260.903 405.967,251.07 410,238.5C 413.818,232.512 418.984,228.179 425.5,225.5 Z"/></g>
<g><path style="opacity:0.999" fill="#7261d9" d="M 82.5,241.5 C 76.732,267.887 75.0653,294.554 77.5,321.5C 72.2782,317.729 67.2782,313.729 62.5,309.5C 64.0174,309.511 65.1841,310.177 66,311.5C 62.6547,285.429 64.4881,259.762 71.5,234.5C 72.1174,234.389 72.6174,234.056 73,233.5C 76.3575,236.031 79.5242,238.698 82.5,241.5 Z"/></g>
<g><path style="opacity:1" fill="#ecba47" d="M 82.5,241.5 C 87.3224,245.411 92.3224,249.078 97.5,252.5C 90.303,277.44 88.6363,302.773 92.5,328.5C 92.4892,330.045 92.1558,331.378 91.5,332.5C 86.7944,328.822 82.1277,325.156 77.5,321.5C 75.0653,294.554 76.732,267.887 82.5,241.5 Z"/></g>
<g><path style="opacity:0.999" fill="#917eeb" d="M 467.5,246.5 C 471.137,248.639 474.303,251.306 477,254.5C 478.127,259.911 476.293,263.911 471.5,266.5C 466.895,268.471 462.562,270.971 458.5,274C 399.541,314.805 340.208,354.972 280.5,394.5C 269.519,385.697 258.352,377.03 247,368.5C 246.617,369.056 246.117,369.389 245.5,369.5C 241.531,364.332 236.531,360.332 230.5,357.5C 230.611,356.883 230.944,356.383 231.5,356C 227.912,353.623 224.412,351.123 221,348.5C 220.722,349.416 220.222,350.082 219.5,350.5C 219.649,349.448 219.483,348.448 219,347.5C 214.667,343.833 210.333,340.167 206,336.5C 205.722,337.416 205.222,338.082 204.5,338.5C 204.5,335.167 202.833,333.5 199.5,333.5C 281.807,314.174 364.14,294.674 446.5,275C 454.907,266.442 461.907,256.942 467.5,246.5 Z"/></g>
<g><path style="opacity:1" fill="#6d5fdd" d="M 97.5,252.5 C 113.833,265.167 130.167,277.833 146.5,290.5C 155.5,306.5 164.5,322.5 173.5,338.5C 182.17,336.833 190.837,335.166 199.5,333.5C 202.833,333.5 204.5,335.167 204.5,338.5C 199.953,363.951 198.286,389.618 199.5,415.5C 163.461,387.822 127.461,360.155 91.5,332.5C 92.1558,331.378 92.4892,330.045 92.5,328.5C 88.6363,302.773 90.303,277.44 97.5,252.5 Z"/></g>
<g><path style="opacity:0.999" fill="#e8f8fe" d="M 471.5,266.5 C 471.5,273.5 471.5,280.5 471.5,287.5C 420.993,325.835 370.327,364.001 319.5,402C 370.417,368.096 420.917,333.263 471,297.5C 471.49,296.207 471.657,294.873 471.5,293.5C 472.492,300.982 472.825,308.648 472.5,316.5C 426.538,349.159 380.871,382.325 335.5,416C 339.306,414.591 342.973,412.591 346.5,410C 388.384,381.233 430.384,352.733 472.5,324.5C 472.827,329.214 472.493,333.88 471.5,338.5C 413.989,380.422 356.656,422.589 299.5,465C 295.929,467.421 292.262,469.587 288.5,471.5C 275.171,455.64 270.337,437.307 274,416.5C 275.467,408.935 277.634,401.602 280.5,394.5C 340.208,354.972 399.541,314.805 458.5,274C 462.562,270.971 466.895,268.471 471.5,266.5 Z"/></g>
<g><path style="opacity:1" fill="#c7c8c8" d="M 471.5,287.5 C 471.5,289.5 471.5,291.5 471.5,293.5C 471.657,294.873 471.49,296.207 471,297.5C 420.917,333.263 370.417,368.096 319.5,402C 370.327,364.001 420.993,325.835 471.5,287.5 Z"/></g>
<g><path style="opacity:0.984" fill="#a77fa8" d="M 57.5,305.5 C 59.7488,306.08 61.4154,307.413 62.5,309.5C 60.2512,308.92 58.5846,307.587 57.5,305.5 Z"/></g>
<g><path style="opacity:1" fill="#c8c9c9" d="M 472.5,316.5 C 472.5,318.5 472.5,320.5 472.5,322.5C 472.5,323.167 472.5,323.833 472.5,324.5C 430.384,352.733 388.384,381.233 346.5,410C 342.973,412.591 339.306,414.591 335.5,416C 380.871,382.325 426.538,349.159 472.5,316.5 Z"/></g>
<g><path style="opacity:0.958" fill="#927fec" d="M 472.5,322.5 C 477.031,324.522 480.864,327.522 484,331.5C 484.959,335.421 483.792,338.588 480.5,341C 416.619,388.762 352.619,436.262 288.5,483.5C 288.5,479.5 288.5,475.5 288.5,471.5C 292.262,469.587 295.929,467.421 299.5,465C 356.656,422.589 413.989,380.422 471.5,338.5C 472.493,333.88 472.827,329.214 472.5,324.5C 472.5,323.833 472.5,323.167 472.5,322.5 Z"/></g>
<g><path style="opacity:1" fill="#ebba47" d="M 219.5,350.5 C 213.185,376.213 211.851,402.213 215.5,428.5C 209.76,424.635 204.427,420.302 199.5,415.5C 198.286,389.618 199.953,363.951 204.5,338.5C 205.222,338.082 205.722,337.416 206,336.5C 210.333,340.167 214.667,343.833 219,347.5C 219.483,348.448 219.649,349.448 219.5,350.5 Z"/></g>
<g><path style="opacity:1" fill="#6f60dc" d="M 230.5,357.5 C 224.758,383.228 223.091,409.228 225.5,435.5C 222.185,433.192 218.851,430.859 215.5,428.5C 211.851,402.213 213.185,376.213 219.5,350.5C 220.222,350.082 220.722,349.416 221,348.5C 224.412,351.123 227.912,353.623 231.5,356C 230.944,356.383 230.611,356.883 230.5,357.5 Z"/></g>
<g><path style="opacity:1" fill="#ecba47" d="M 230.5,357.5 C 236.531,360.332 241.531,364.332 245.5,369.5C 237.887,395.484 236.554,421.817 241.5,448.5C 235.518,444.84 230.185,440.507 225.5,435.5C 223.091,409.228 224.758,383.228 230.5,357.5 Z"/></g>
<g><path style="opacity:1" fill="#6e60dd" d="M 280.5,394.5 C 277.634,401.602 275.467,408.935 274,416.5C 270.337,437.307 275.171,455.64 288.5,471.5C 288.5,475.5 288.5,479.5 288.5,483.5C 288.565,483.938 288.399,484.272 288,484.5C 272.341,472.601 256.841,460.601 241.5,448.5C 236.554,421.817 237.887,395.484 245.5,369.5C 246.117,369.389 246.617,369.056 247,368.5C 258.352,377.03 269.519,385.697 280.5,394.5 Z"/></g>
</svg>
