<svg xmlns="http://www.w3.org/2000/svg" xmlns:xlink="http://www.w3.org/1999/xlink" width="64" height="64" viewBox="0 0 64 64" id="document"><defs><path id="a" d="M.06 64V.04H64V64z"></path></defs><g fill="none" fill-rule="evenodd"><g><g><mask id="b" fill="#fff"><use xlink:href="#a"></use></mask><path fill="#D5915B" d="M64 32c0 17.673-14.327 32-32 32C14.327 64 0 49.673 0 32 0 14.327 14.327 0 32 0c17.673 0 32 14.327 32 32" mask="url(#b)"></path></g><path fill="#AE7A51" d="M45 54H19a3 3 0 0 1-3-3V17v32a3 3 0 0 0 3 3h26a3 3 0 0 0 3-3v2a3 3 0 0 1-3 3"></path><path fill="#DEDECA" d="M36 21v-9H19a3 3 0 0 0-3 3v34a3 3 0 0 0 3 3h26a3 3 0 0 0 3-3V24h-9a3 3 0 0 1-3-3"></path><path fill="#AE7A51" d="M48 24h-9a2.988 2.988 0 0 1-1.93-.703L48 24"></path><path fill="#B3B2A4" d="M48 33l-6-5.302V27h-.79l-4.194-3.706.054.003A2.988 2.988 0 0 0 39 24h9v9"></path><path fill="#FFFFFE" d="M36 12v9a3 3 0 0 0 3 3h9L36 12"></path><path fill="#B3B2A4" d="M22 24h9.625v-2H22zM22 34h20v-2H22zM42 29H22v-2h19.21l.79.698V29"></path><path fill="#939388" d="M42 27.698L41.21 27H42v.698"></path><path fill="#B3B2A4" d="M22 39h20v-2H22zM22 44h20v-2H22z"></path></g></g></svg>