<?xml version="1.0" encoding="UTF-8"?>
<!DOCTYPE svg PUBLIC "-//W3C//DTD SVG 1.1//EN" "http://www.w3.org/Graphics/SVG/1.1/DTD/svg11.dtd">
<svg xmlns="http://www.w3.org/2000/svg" version="1.1" width="512px" height="512px" style="shape-rendering:geometricPrecision; text-rendering:geometricPrecision; image-rendering:optimizeQuality; fill-rule:evenodd; clip-rule:evenodd" xmlns:xlink="http://www.w3.org/1999/xlink">
<g><path style="opacity:0.994" fill="#f8b116" d="M 245.5,6.5 C 250.5,6.5 255.5,6.5 260.5,6.5C 260.5,73.5 260.5,140.5 260.5,207.5C 193.167,207.5 125.833,207.5 58.5,207.5C 61.3496,125.917 98.3496,65.75 169.5,27C 193.716,15.5313 219.049,8.698 245.5,6.5 Z"/></g>
<g><path style="opacity:0.993" fill="#fb5309" d="M 301.5,6.5 C 380.84,8.44399 440.34,43.444 480,111.5C 495.684,141.57 503.518,173.57 503.5,207.5C 436.167,207.5 368.833,207.5 301.5,207.5C 301.5,140.5 301.5,73.5 301.5,6.5 Z"/></g>
<g><path style="opacity:0.996" fill="#a1daf9" d="M 101.5,419.5 C 99.5698,415.9 96.9031,412.9 93.5,410.5C 72.3986,386.947 64.7319,359.447 70.5,328C 81.1359,284.699 108.469,259.365 152.5,252C 193.832,248.418 225.666,263.918 248,298.5C 264.301,329.996 264.634,361.663 249,393.5C 225.681,430.406 192.181,446.239 148.5,441C 131.028,437.594 115.361,430.428 101.5,419.5 Z"/></g>
<g><path style="opacity:0.996" fill="#f8830d" d="M 301.5,251.5 C 368.833,251.5 436.167,251.5 503.5,251.5C 500.224,338.217 459.557,400.05 381.5,437C 355.848,447.364 329.181,452.53 301.5,452.5C 301.5,385.5 301.5,318.5 301.5,251.5 Z"/></g>
<g><path style="opacity:0.939" fill="#3aa2da" d="M 93.5,410.5 C 96.9031,412.9 99.5698,415.9 101.5,419.5C 73.0067,447.827 44.34,475.993 15.5,504C 8.25736,504.414 6.09069,501.248 9,494.5C 37.6734,466.993 65.84,438.993 93.5,410.5 Z"/></g>
</svg>
