<svg width="25" height="26" viewBox="0 0 25 26" fill="none" xmlns="http://www.w3.org/2000/svg">
<mask id="path-1-inside-1_24_1234" fill="white">
<path d="M19.7055 6.51045C19.7402 6.57551 19.7806 6.63592 19.8152 6.70098C19.8465 6.75707 19.8488 6.82084 19.8218 6.87832C19.7947 6.93581 19.7405 6.98232 19.6709 7.00768C19.6328 7.02191 19.5916 7.02982 19.5497 7.03091C19.4941 7.03076 19.4399 7.01746 19.3937 6.99267C19.3475 6.96788 19.3114 6.9327 19.2898 6.8915L19.1859 6.73815C19.1522 6.68269 19.1473 6.61873 19.1722 6.56034C19.1971 6.50195 19.2498 6.45392 19.3187 6.4268C19.3876 6.39969 19.4671 6.39572 19.5396 6.41576C19.6122 6.43581 19.6719 6.47822 19.7055 6.53369V6.51045ZM21.6917 20.9162C21.7176 20.9504 21.7541 20.9787 21.7976 20.9982C21.8411 21.0178 21.8901 21.0279 21.94 21.0277C21.9928 21.0286 22.0449 21.0173 22.0901 20.9952C22.1223 20.979 22.1503 20.9579 22.1725 20.9331C22.1946 20.9082 22.2104 20.8801 22.219 20.8503C22.2275 20.8205 22.2287 20.7896 22.2225 20.7595C22.2162 20.7293 22.2026 20.7004 22.1824 20.6745L21.9977 20.4282C21.9562 20.3767 21.8915 20.3402 21.8172 20.3263C21.7428 20.3124 21.6647 20.3223 21.5993 20.3539C21.5664 20.3696 21.5378 20.3904 21.5153 20.4153C21.4927 20.4401 21.4766 20.4683 21.468 20.4983C21.4594 20.5283 21.4584 20.5593 21.465 20.5896C21.4717 20.6199 21.486 20.6488 21.5069 20.6745L21.6917 20.9162ZM24.5785 23.7648C24.6789 23.8943 24.7465 24.0385 24.7773 24.1891C24.8081 24.3398 24.8016 24.4938 24.7581 24.6424C24.7147 24.791 24.6351 24.9312 24.524 25.0549C24.4129 25.1787 24.2725 25.2835 24.1109 25.3633L23.1466 25.828C22.9198 25.9417 22.6575 26.0013 22.3903 26C22.2778 25.9997 22.1656 25.9903 22.0554 25.9721C21.6848 25.8982 21.3641 25.7116 21.1605 25.4516L15.4561 18.0164C15.4363 17.9906 15.4232 17.9618 15.4174 17.9318C15.4117 17.9019 15.4134 17.8712 15.4226 17.8418C15.4317 17.8124 15.4481 17.7847 15.4707 17.7604C15.4933 17.7361 15.5217 17.7157 15.5543 17.7004L15.8949 17.5285L14.8961 16.2645C13.3688 16.7326 11.7101 16.8507 10.1044 16.6058C8.4987 16.3608 7.0088 15.7624 5.80023 14.8769C4.59166 13.9915 3.71174 12.8537 3.25822 11.59C2.80469 10.3262 2.79533 8.98606 3.23117 7.71832C3.66701 6.45058 4.53098 5.3049 5.7271 4.40857C6.92323 3.51224 8.40467 2.90035 10.0069 2.64088C11.609 2.38141 13.2692 2.48451 14.803 2.93874C16.3367 3.39296 17.684 4.18053 18.6951 5.21394C18.7417 5.26266 18.7624 5.32425 18.7526 5.38522C18.7429 5.44619 18.7035 5.50157 18.6432 5.53923C18.5834 5.57722 18.5073 5.59463 18.4316 5.58767C18.3559 5.5807 18.2867 5.54993 18.239 5.50205C16.9754 4.21484 15.1645 3.34967 13.1553 3.07328C11.1462 2.7969 9.08108 3.12888 7.358 4.00522C5.63491 4.88157 4.37585 6.24025 3.8235 7.81938C3.27114 9.39852 3.46459 11.0863 4.36655 12.5575C5.26851 14.0286 6.81514 15.179 8.70833 15.7868C10.6015 16.3947 12.7073 16.417 14.6197 15.8495C16.5321 15.2819 18.1158 14.1647 19.0655 12.7132C20.0153 11.2616 20.2638 9.57848 19.7633 7.9882C19.7441 7.92657 19.7562 7.86136 19.7968 7.80689C19.8374 7.75242 19.9032 7.71317 19.9798 7.69776C20.0564 7.68235 20.1374 7.69206 20.2051 7.72474C20.2727 7.75742 20.3215 7.8104 20.3406 7.87202C20.758 9.1885 20.6958 10.5739 20.1614 11.8626C19.6269 13.1514 18.6429 14.2891 17.3268 15.1399L18.2737 16.3574L18.4873 16.2506C18.5511 16.2189 18.6279 16.2088 18.7009 16.2227C18.775 16.2365 18.8393 16.2732 18.8799 16.3249L21.4261 19.6336C21.4653 19.6863 21.4776 19.7491 21.4603 19.8089C21.4431 19.8687 21.3977 19.9208 21.3337 19.9542C21.3017 19.9711 21.2659 19.9826 21.2282 19.9879C21.1906 19.9933 21.152 19.9925 21.1148 19.9856C21.0776 19.9786 21.0425 19.9657 21.0116 19.9475C20.9808 19.9293 20.9548 19.9063 20.9353 19.8799L18.545 16.7664L18.3372 16.8733L16.455 17.8027L16.1143 17.97L16.7379 18.7832L16.7725 18.7507L17.679 18.286C17.7435 18.2521 17.822 18.2399 17.8976 18.2521C17.9731 18.2642 18.0397 18.2998 18.0831 18.351C18.1249 18.4022 18.1399 18.4647 18.1247 18.5247C18.1096 18.5848 18.0656 18.6376 18.0023 18.6717L17.0612 19.1457C17.0365 19.1504 17.0108 19.1504 16.9861 19.1457L17.5635 19.9263L19.4284 18.9644C19.4593 18.9469 19.4943 18.9346 19.5312 18.9282C19.5681 18.9217 19.6063 18.9213 19.6434 18.927C19.6806 18.9326 19.7159 18.9442 19.7474 18.961C19.7789 18.9778 19.8059 18.9995 19.8268 19.0248C19.8689 19.0768 19.884 19.1399 19.8689 19.2008C19.8538 19.2616 19.8096 19.3152 19.746 19.3501L17.9388 20.3306L18.5162 21.0974L19.3764 20.6327C19.441 20.5988 19.5195 20.5867 19.595 20.5988C19.6706 20.611 19.7372 20.6465 19.7806 20.6978C19.8224 20.749 19.8373 20.8114 19.8222 20.8715C19.807 20.9315 19.7631 20.9843 19.6998 21.0184L18.8222 21.4831L19.3995 22.2452L21.1316 21.3158C21.1626 21.2983 21.1975 21.286 21.2344 21.2796C21.2714 21.2731 21.3095 21.2727 21.3467 21.2783C21.3838 21.284 21.4192 21.2955 21.4506 21.3123C21.4821 21.3292 21.5091 21.3509 21.53 21.3762C21.5721 21.4282 21.5872 21.4913 21.5721 21.5521C21.557 21.613 21.5129 21.6666 21.4492 21.7015L19.7171 22.6309L20.2945 23.393L21.0277 23.0027C21.0923 22.9688 21.1707 22.9566 21.2463 22.9688C21.3218 22.981 21.3885 23.0165 21.4319 23.0677C21.4737 23.1189 21.4886 23.1814 21.4735 23.2414C21.4583 23.3015 21.4143 23.3543 21.351 23.3884L20.5831 23.8112L21.1605 24.5733L22.8002 23.6858C22.8632 23.6517 22.9403 23.6389 23.0148 23.6502C23.0894 23.6615 23.1554 23.696 23.1986 23.7462C23.2413 23.7976 23.2573 23.8603 23.2433 23.9211C23.2293 23.9819 23.1863 24.0358 23.1236 24.0715L21.4492 24.9683L21.6282 25.2053C21.7508 25.3616 21.9446 25.4729 22.168 25.5155C22.3914 25.5581 22.6267 25.5285 22.8233 25.433L23.7875 24.9683C23.982 24.8686 24.1207 24.712 24.1744 24.5315C24.1996 24.4394 24.2014 24.3442 24.1795 24.2515C24.1577 24.1589 24.1127 24.0707 24.0473 23.9925L22.3961 21.8363C22.3775 21.81 22.3655 21.7811 22.3608 21.7511C22.3562 21.7212 22.3588 21.6908 22.3688 21.6616C22.3787 21.6325 22.3956 21.6052 22.4186 21.5814C22.4417 21.5575 22.4703 21.5375 22.5029 21.5226C22.5355 21.5076 22.5714 21.498 22.6087 21.4942C22.6459 21.4905 22.6837 21.4926 22.7199 21.5006C22.7561 21.5086 22.7899 21.5222 22.8196 21.5408C22.8492 21.5593 22.874 21.5823 22.8926 21.6086L24.5785 23.7648ZM16.3626 17.2915L17.754 16.5991L16.9226 15.521L15.5312 16.2134L16.3626 17.2915ZM5.96998 11.0413C5.95943 11.0121 5.94172 10.9848 5.91789 10.9612C5.89406 10.9376 5.86459 10.9181 5.83122 10.9038C5.79785 10.8895 5.76126 10.8807 5.72361 10.878C5.68596 10.8753 5.64801 10.8786 5.61201 10.8879C5.57526 10.8958 5.54092 10.9097 5.51113 10.9288C5.48135 10.9478 5.45675 10.9716 5.43888 10.9986C5.421 11.0257 5.41024 11.0554 5.40724 11.0859C5.40425 11.1164 5.40909 11.1471 5.42148 11.176C5.45195 11.2674 5.48857 11.3574 5.53118 11.4456C5.55135 11.4905 5.58822 11.5293 5.63678 11.5567C5.68533 11.5842 5.74321 11.5989 5.80254 11.5989H5.90069C5.97264 11.5779 6.0313 11.5348 6.06378 11.4791C6.09626 11.4233 6.0999 11.3594 6.0739 11.3015C6.00462 11.2039 5.97575 11.1249 5.94111 11.0413H5.96998ZM11.7552 14.9633C13.0983 14.9608 14.4089 14.6305 15.5139 14.016C16.6189 13.4015 17.4664 12.5317 17.9444 11.5215C18.4225 10.5113 18.5087 9.40813 18.1916 8.35768C17.8745 7.30722 17.1691 6.35885 16.1684 5.63779C15.1678 4.91673 13.9189 4.45687 12.5868 4.31894C11.2547 4.181 9.90188 4.37147 8.70704 4.8652C7.51221 5.35893 6.5315 6.1327 5.89439 7.08436C5.25729 8.03602 4.99375 9.12081 5.13857 10.1955C5.14727 10.2564 5.18554 10.3121 5.24502 10.3504C5.3045 10.3887 5.38038 10.4065 5.45612 10.4C5.53222 10.393 5.60193 10.3623 5.65044 10.3146C5.69895 10.2669 5.72244 10.2058 5.71593 10.1444C5.59541 9.22839 5.79795 8.30357 6.30036 7.47593C6.80277 6.64829 7.58471 5.95132 8.55658 5.46488C9.23393 5.12739 9.98728 4.90066 10.7736 4.79765C11.5598 4.69465 12.3636 4.71737 13.139 4.86454C13.9143 5.01171 14.6461 5.28043 15.2923 5.65534C15.9386 6.03025 16.4867 6.504 16.9053 7.0495C17.6385 8.14688 17.8229 9.42832 17.4208 10.6315C17.0186 11.8348 16.0603 12.8688 14.7419 13.5219C13.4236 14.1751 11.8449 14.398 10.3291 14.145C8.81321 13.8921 7.4748 13.1824 6.58776 12.1612C6.56767 12.1353 6.54142 12.1128 6.51053 12.095C6.47963 12.0772 6.44469 12.0645 6.4077 12.0576C6.37071 12.0507 6.33239 12.0497 6.29493 12.0548C6.25747 12.0598 6.2216 12.0707 6.18938 12.0869C6.15715 12.103 6.1292 12.1241 6.10712 12.149C6.08504 12.1739 6.06926 12.202 6.06068 12.2318C6.0521 12.2616 6.05089 12.2924 6.05712 12.3225C6.06336 12.3527 6.0769 12.3816 6.097 12.4075C6.6897 13.1875 7.52114 13.8321 8.51179 14.2796C9.50245 14.7271 10.6192 14.9625 11.7552 14.9633ZM11.045 11.7104C11.1204 11.7108 11.1929 11.6875 11.2471 11.6454L15.8661 7.92779C15.9189 7.88435 15.9486 7.82596 15.9486 7.76514C15.9486 7.70432 15.9189 7.64593 15.8661 7.6025C15.8392 7.58072 15.8073 7.56343 15.7721 7.55164C15.7369 7.53984 15.6992 7.53377 15.6611 7.53377C15.623 7.53377 15.5852 7.53984 15.5501 7.55164C15.5149 7.56343 15.483 7.58072 15.4561 7.6025L11.045 11.1528L8.52771 9.13136C8.5018 9.10913 8.47049 9.09142 8.43574 9.07931C8.40098 9.0672 8.36351 9.06095 8.32563 9.06095C8.28776 9.06095 8.25029 9.0672 8.21553 9.07931C8.18078 9.09142 8.14947 9.10913 8.12356 9.13136C8.0965 9.15296 8.07502 9.17866 8.06037 9.20697C8.04571 9.23529 8.03816 9.26566 8.03816 9.29633C8.03816 9.327 8.04571 9.35737 8.06037 9.38568C8.07502 9.414 8.0965 9.4397 8.12356 9.4613L10.843 11.65C10.8978 11.6913 10.9699 11.7145 11.045 11.7151V11.7104ZM1.37991 4.22413C1.37843 4.16287 1.34754 4.10446 1.29372 4.06115C1.2399 4.01783 1.16732 3.99296 1.09122 3.99178H0.288684C0.212583 3.99296 0.14001 4.01783 0.0861886 4.06115C0.032367 4.10446 0.0014781 4.16287 0 4.22413C0 4.28575 0.0304146 4.34485 0.0845532 4.38842C0.138692 4.432 0.21212 4.45648 0.288684 4.45648H1.09122C1.16779 4.45648 1.24122 4.432 1.29535 4.38842C1.34949 4.34485 1.37991 4.28575 1.37991 4.22413ZM3.11201 4.45648H3.91455C3.99111 4.45648 4.06454 4.432 4.11868 4.38842C4.17282 4.34485 4.20323 4.28575 4.20323 4.22413C4.20175 4.16287 4.17087 4.10446 4.11704 4.06115C4.06322 4.01783 3.99065 3.99296 3.91455 3.99178H3.10046C3.02436 3.99296 2.95179 4.01783 2.89797 4.06115C2.84415 4.10446 2.81326 4.16287 2.81178 4.22413C2.81178 4.28575 2.84219 4.34485 2.89633 4.38842C2.95047 4.432 3.0239 4.45648 3.10046 4.45648H3.11201ZM2.39607 5.67864V5.03735C2.39607 4.97573 2.36566 4.91663 2.31152 4.87305C2.25738 4.82948 2.18395 4.805 2.10739 4.805C2.03083 4.805 1.9574 4.82948 1.90326 4.87305C1.84912 4.91663 1.81871 4.97573 1.81871 5.03735V5.67864C1.81871 5.74026 1.84912 5.79936 1.90326 5.84293C1.9574 5.88651 2.03083 5.91099 2.10739 5.91099C2.18193 5.90859 2.25243 5.88305 2.3041 5.83973C2.35576 5.79642 2.38459 5.73868 2.38453 5.67864H2.39607ZM2.10739 3.6479C2.18395 3.6479 2.25738 3.62342 2.31152 3.57984C2.36566 3.53627 2.39607 3.47717 2.39607 3.41555V2.77426C2.39165 2.71509 2.3593 2.65951 2.30563 2.6189C2.25197 2.5783 2.18105 2.55574 2.10739 2.55585C2.03083 2.55585 1.9574 2.58033 1.90326 2.6239C1.84912 2.66748 1.81871 2.72658 1.81871 2.7882V3.41555C1.81871 3.47717 1.84912 3.53627 1.90326 3.57984C1.9574 3.62342 2.03083 3.6479 2.10739 3.6479ZM16.3453 1.91921H17.1189C17.1955 1.91921 17.2689 1.89473 17.3231 1.85116C17.3772 1.80758 17.4076 1.74849 17.4076 1.68686C17.4076 1.62524 17.3772 1.56614 17.3231 1.52257C17.2689 1.47899 17.1955 1.45451 17.1189 1.45451H16.3453C16.2687 1.45451 16.1953 1.47899 16.1411 1.52257C16.087 1.56614 16.0566 1.62524 16.0566 1.68686C16.0566 1.74849 16.087 1.80758 16.1411 1.85116C16.1953 1.89473 16.2687 1.91921 16.3453 1.91921ZM19.157 1.91921H19.9596C20.0361 1.91921 20.1096 1.89473 20.1637 1.85116C20.2179 1.80758 20.2483 1.74849 20.2483 1.68686C20.2483 1.62524 20.2179 1.56614 20.1637 1.52257C20.1096 1.47899 20.0361 1.45451 19.9596 1.45451H19.157C19.0805 1.45451 19.0071 1.47899 18.9529 1.52257C18.8988 1.56614 18.8684 1.62524 18.8684 1.68686C18.8684 1.74849 18.8988 1.80758 18.9529 1.85116C19.0071 1.89473 19.0805 1.91921 19.157 1.91921ZM18.1524 3.37372C18.2285 3.37253 18.3011 3.34767 18.3549 3.30435C18.4087 3.26103 18.4396 3.20262 18.4411 3.14137V2.49544C18.4396 2.43419 18.4087 2.37578 18.3549 2.33246C18.3011 2.28914 18.2285 2.26428 18.1524 2.26309C18.0759 2.26309 18.0024 2.28757 17.9483 2.33114C17.8942 2.37472 17.8637 2.43382 17.8637 2.49544V3.14137C17.8637 3.203 17.8942 3.2621 17.9483 3.30567C18.0024 3.34924 18.0759 3.37372 18.1524 3.37372ZM18.1524 1.11063C18.2285 1.10944 18.3011 1.08458 18.3549 1.04126C18.4087 0.997945 18.4396 0.939534 18.4411 0.878283V0.23235C18.4396 0.171099 18.4087 0.112689 18.3549 0.0693702C18.3011 0.0260513 18.2285 0.00118967 18.1524 0C18.0759 0 18.0024 0.0244797 17.9483 0.0680538C17.8942 0.111628 17.8637 0.170727 17.8637 0.23235V0.878283C17.8637 0.939906 17.8942 0.999006 17.9483 1.04258C18.0024 1.08615 18.0759 1.11063 18.1524 1.11063ZM22.0497 7.43985H22.627C22.7036 7.43985 22.777 7.41537 22.8312 7.3718C22.8853 7.32822 22.9157 7.26912 22.9157 7.2075C22.9157 7.14588 22.8853 7.08678 22.8312 7.0432C22.777 6.99963 22.7036 6.97515 22.627 6.97515H22.0497C21.9736 6.97634 21.901 7.0012 21.8472 7.04452C21.7933 7.08784 21.7624 7.14625 21.761 7.2075C21.761 7.26912 21.7914 7.32822 21.8455 7.3718C21.8997 7.41537 21.9731 7.43985 22.0497 7.43985ZM24.7113 6.97515H24.1339C24.0574 6.97515 23.984 6.99963 23.9298 7.0432C23.8757 7.08678 23.8453 7.14588 23.8453 7.2075C23.8453 7.26912 23.8757 7.32822 23.9298 7.3718C23.984 7.41537 24.0574 7.43985 24.1339 7.43985H24.7113C24.7879 7.43985 24.8613 7.41537 24.9154 7.3718C24.9696 7.32822 25 7.26912 25 7.2075C24.9985 7.14625 24.9676 7.08784 24.9138 7.04452C24.86 7.0012 24.7874 6.97634 24.7113 6.97515ZM23.3834 8.50866C23.4599 8.50866 23.5334 8.48418 23.5875 8.44061C23.6416 8.39703 23.6721 8.33793 23.6721 8.27631V7.81161C23.6721 7.74999 23.6416 7.69089 23.5875 7.64731C23.5334 7.60374 23.4599 7.57926 23.3834 7.57926C23.3068 7.57926 23.2334 7.60374 23.1792 7.64731C23.1251 7.69089 23.0947 7.74999 23.0947 7.81161V8.27631C23.0947 8.33793 23.1251 8.39703 23.1792 8.44061C23.2334 8.48418 23.3068 8.50866 23.3834 8.50866ZM23.3834 6.84503C23.4599 6.84503 23.5334 6.82056 23.5875 6.77698C23.6416 6.73341 23.6721 6.67431 23.6721 6.61268V6.14798C23.6706 6.08673 23.6397 6.02832 23.5859 5.985C23.532 5.94169 23.4595 5.91682 23.3834 5.91563C23.3068 5.91563 23.2334 5.94011 23.1792 5.98369C23.1251 6.02726 23.0947 6.08636 23.0947 6.14798V6.61268C23.0947 6.67431 23.1251 6.73341 23.1792 6.77698C23.2334 6.82056 23.3068 6.84503 23.3834 6.84503ZM1.67436 13.3508H1.097C1.02043 13.3508 0.947006 13.3753 0.892867 13.4189C0.838728 13.4625 0.808314 13.5216 0.808314 13.5832C0.808314 13.6448 0.838728 13.7039 0.892867 13.7475C0.947006 13.7911 1.02043 13.8155 1.097 13.8155H1.67436C1.75093 13.8155 1.82436 13.7911 1.87849 13.7475C1.93263 13.7039 1.96305 13.6448 1.96305 13.5832C1.96154 13.5224 1.93046 13.4645 1.87648 13.4219C1.8225 13.3793 1.74994 13.3555 1.67436 13.3555V13.3508ZM3.74711 13.3508H3.16975C3.09318 13.3508 3.01975 13.3753 2.96562 13.4189C2.91148 13.4625 2.88106 13.5216 2.88106 13.5832C2.88106 13.6448 2.91148 13.7039 2.96562 13.7475C3.01975 13.7911 3.09318 13.8155 3.16975 13.8155H3.74711C3.82368 13.8155 3.8971 13.7911 3.95124 13.7475C4.00538 13.7039 4.0358 13.6448 4.0358 13.5832C4.03286 13.5228 4.00133 13.4655 3.94766 13.4232C3.89399 13.3808 3.82225 13.3566 3.74711 13.3555V13.3508ZM2.41917 13.9503C2.3426 13.9503 2.26918 13.9748 2.21504 14.0184C2.1609 14.0619 2.13048 14.121 2.13048 14.1827V14.6474C2.13048 14.709 2.1609 14.7681 2.21504 14.8116C2.26918 14.8552 2.3426 14.8797 2.41917 14.8797C2.4937 14.8749 2.56303 14.8471 2.61257 14.802C2.6621 14.757 2.68798 14.6982 2.68476 14.6381V14.1734C2.68078 14.1173 2.65169 14.0642 2.60285 14.0241C2.55402 13.9839 2.48877 13.9594 2.41917 13.9549V13.9503ZM2.41917 12.282C2.3426 12.282 2.26918 12.3065 2.21504 12.3501C2.1609 12.3937 2.13048 12.4528 2.13048 12.5144V12.9791C2.13048 13.0407 2.1609 13.0998 2.21504 13.1434C2.26918 13.1869 2.3426 13.2114 2.41917 13.2114C2.49573 13.2114 2.56916 13.1869 2.6233 13.1434C2.67744 13.0998 2.70785 13.0407 2.70785 12.9791V12.5144C2.70492 12.4539 2.67339 12.3967 2.61972 12.3544C2.56605 12.312 2.4943 12.2878 2.41917 12.2867V12.282Z"/>
</mask>
<g filter="url(#filter0_i_24_1234)">
<path d="M19.7055 6.51045C19.7402 6.57551 19.7806 6.63592 19.8152 6.70098C19.8465 6.75707 19.8488 6.82084 19.8218 6.87832C19.7947 6.93581 19.7405 6.98232 19.6709 7.00768C19.6328 7.02191 19.5916 7.02982 19.5497 7.03091C19.4941 7.03076 19.4399 7.01746 19.3937 6.99267C19.3475 6.96788 19.3114 6.9327 19.2898 6.8915L19.1859 6.73815C19.1522 6.68269 19.1473 6.61873 19.1722 6.56034C19.1971 6.50195 19.2498 6.45392 19.3187 6.4268C19.3876 6.39969 19.4671 6.39572 19.5396 6.41576C19.6122 6.43581 19.6719 6.47822 19.7055 6.53369V6.51045ZM21.6917 20.9162C21.7176 20.9504 21.7541 20.9787 21.7976 20.9982C21.8411 21.0178 21.8901 21.0279 21.94 21.0277C21.9928 21.0286 22.0449 21.0173 22.0901 20.9952C22.1223 20.979 22.1503 20.9579 22.1725 20.9331C22.1946 20.9082 22.2104 20.8801 22.219 20.8503C22.2275 20.8205 22.2287 20.7896 22.2225 20.7595C22.2162 20.7293 22.2026 20.7004 22.1824 20.6745L21.9977 20.4282C21.9562 20.3767 21.8915 20.3402 21.8172 20.3263C21.7428 20.3124 21.6647 20.3223 21.5993 20.3539C21.5664 20.3696 21.5378 20.3904 21.5153 20.4153C21.4927 20.4401 21.4766 20.4683 21.468 20.4983C21.4594 20.5283 21.4584 20.5593 21.465 20.5896C21.4717 20.6199 21.486 20.6488 21.5069 20.6745L21.6917 20.9162ZM24.5785 23.7648C24.6789 23.8943 24.7465 24.0385 24.7773 24.1891C24.8081 24.3398 24.8016 24.4938 24.7581 24.6424C24.7147 24.791 24.6351 24.9312 24.524 25.0549C24.4129 25.1787 24.2725 25.2835 24.1109 25.3633L23.1466 25.828C22.9198 25.9417 22.6575 26.0013 22.3903 26C22.2778 25.9997 22.1656 25.9903 22.0554 25.9721C21.6848 25.8982 21.3641 25.7116 21.1605 25.4516L15.4561 18.0164C15.4363 17.9906 15.4232 17.9618 15.4174 17.9318C15.4117 17.9019 15.4134 17.8712 15.4226 17.8418C15.4317 17.8124 15.4481 17.7847 15.4707 17.7604C15.4933 17.7361 15.5217 17.7157 15.5543 17.7004L15.8949 17.5285L14.8961 16.2645C13.3688 16.7326 11.7101 16.8507 10.1044 16.6058C8.4987 16.3608 7.0088 15.7624 5.80023 14.8769C4.59166 13.9915 3.71174 12.8537 3.25822 11.59C2.80469 10.3262 2.79533 8.98606 3.23117 7.71832C3.66701 6.45058 4.53098 5.3049 5.7271 4.40857C6.92323 3.51224 8.40467 2.90035 10.0069 2.64088C11.609 2.38141 13.2692 2.48451 14.803 2.93874C16.3367 3.39296 17.684 4.18053 18.6951 5.21394C18.7417 5.26266 18.7624 5.32425 18.7526 5.38522C18.7429 5.44619 18.7035 5.50157 18.6432 5.53923C18.5834 5.57722 18.5073 5.59463 18.4316 5.58767C18.3559 5.5807 18.2867 5.54993 18.239 5.50205C16.9754 4.21484 15.1645 3.34967 13.1553 3.07328C11.1462 2.7969 9.08108 3.12888 7.358 4.00522C5.63491 4.88157 4.37585 6.24025 3.8235 7.81938C3.27114 9.39852 3.46459 11.0863 4.36655 12.5575C5.26851 14.0286 6.81514 15.179 8.70833 15.7868C10.6015 16.3947 12.7073 16.417 14.6197 15.8495C16.5321 15.2819 18.1158 14.1647 19.0655 12.7132C20.0153 11.2616 20.2638 9.57848 19.7633 7.9882C19.7441 7.92657 19.7562 7.86136 19.7968 7.80689C19.8374 7.75242 19.9032 7.71317 19.9798 7.69776C20.0564 7.68235 20.1374 7.69206 20.2051 7.72474C20.2727 7.75742 20.3215 7.8104 20.3406 7.87202C20.758 9.1885 20.6958 10.5739 20.1614 11.8626C19.6269 13.1514 18.6429 14.2891 17.3268 15.1399L18.2737 16.3574L18.4873 16.2506C18.5511 16.2189 18.6279 16.2088 18.7009 16.2227C18.775 16.2365 18.8393 16.2732 18.8799 16.3249L21.4261 19.6336C21.4653 19.6863 21.4776 19.7491 21.4603 19.8089C21.4431 19.8687 21.3977 19.9208 21.3337 19.9542C21.3017 19.9711 21.2659 19.9826 21.2282 19.9879C21.1906 19.9933 21.152 19.9925 21.1148 19.9856C21.0776 19.9786 21.0425 19.9657 21.0116 19.9475C20.9808 19.9293 20.9548 19.9063 20.9353 19.8799L18.545 16.7664L18.3372 16.8733L16.455 17.8027L16.1143 17.97L16.7379 18.7832L16.7725 18.7507L17.679 18.286C17.7435 18.2521 17.822 18.2399 17.8976 18.2521C17.9731 18.2642 18.0397 18.2998 18.0831 18.351C18.1249 18.4022 18.1399 18.4647 18.1247 18.5247C18.1096 18.5848 18.0656 18.6376 18.0023 18.6717L17.0612 19.1457C17.0365 19.1504 17.0108 19.1504 16.9861 19.1457L17.5635 19.9263L19.4284 18.9644C19.4593 18.9469 19.4943 18.9346 19.5312 18.9282C19.5681 18.9217 19.6063 18.9213 19.6434 18.927C19.6806 18.9326 19.7159 18.9442 19.7474 18.961C19.7789 18.9778 19.8059 18.9995 19.8268 19.0248C19.8689 19.0768 19.884 19.1399 19.8689 19.2008C19.8538 19.2616 19.8096 19.3152 19.746 19.3501L17.9388 20.3306L18.5162 21.0974L19.3764 20.6327C19.441 20.5988 19.5195 20.5867 19.595 20.5988C19.6706 20.611 19.7372 20.6465 19.7806 20.6978C19.8224 20.749 19.8373 20.8114 19.8222 20.8715C19.807 20.9315 19.7631 20.9843 19.6998 21.0184L18.8222 21.4831L19.3995 22.2452L21.1316 21.3158C21.1626 21.2983 21.1975 21.286 21.2344 21.2796C21.2714 21.2731 21.3095 21.2727 21.3467 21.2783C21.3838 21.284 21.4192 21.2955 21.4506 21.3123C21.4821 21.3292 21.5091 21.3509 21.53 21.3762C21.5721 21.4282 21.5872 21.4913 21.5721 21.5521C21.557 21.613 21.5129 21.6666 21.4492 21.7015L19.7171 22.6309L20.2945 23.393L21.0277 23.0027C21.0923 22.9688 21.1707 22.9566 21.2463 22.9688C21.3218 22.981 21.3885 23.0165 21.4319 23.0677C21.4737 23.1189 21.4886 23.1814 21.4735 23.2414C21.4583 23.3015 21.4143 23.3543 21.351 23.3884L20.5831 23.8112L21.1605 24.5733L22.8002 23.6858C22.8632 23.6517 22.9403 23.6389 23.0148 23.6502C23.0894 23.6615 23.1554 23.696 23.1986 23.7462C23.2413 23.7976 23.2573 23.8603 23.2433 23.9211C23.2293 23.9819 23.1863 24.0358 23.1236 24.0715L21.4492 24.9683L21.6282 25.2053C21.7508 25.3616 21.9446 25.4729 22.168 25.5155C22.3914 25.5581 22.6267 25.5285 22.8233 25.433L23.7875 24.9683C23.982 24.8686 24.1207 24.712 24.1744 24.5315C24.1996 24.4394 24.2014 24.3442 24.1795 24.2515C24.1577 24.1589 24.1127 24.0707 24.0473 23.9925L22.3961 21.8363C22.3775 21.81 22.3655 21.7811 22.3608 21.7511C22.3562 21.7212 22.3588 21.6908 22.3688 21.6616C22.3787 21.6325 22.3956 21.6052 22.4186 21.5814C22.4417 21.5575 22.4703 21.5375 22.5029 21.5226C22.5355 21.5076 22.5714 21.498 22.6087 21.4942C22.6459 21.4905 22.6837 21.4926 22.7199 21.5006C22.7561 21.5086 22.7899 21.5222 22.8196 21.5408C22.8492 21.5593 22.874 21.5823 22.8926 21.6086L24.5785 23.7648ZM16.3626 17.2915L17.754 16.5991L16.9226 15.521L15.5312 16.2134L16.3626 17.2915ZM5.96998 11.0413C5.95943 11.0121 5.94172 10.9848 5.91789 10.9612C5.89406 10.9376 5.86459 10.9181 5.83122 10.9038C5.79785 10.8895 5.76126 10.8807 5.72361 10.878C5.68596 10.8753 5.64801 10.8786 5.61201 10.8879C5.57526 10.8958 5.54092 10.9097 5.51113 10.9288C5.48135 10.9478 5.45675 10.9716 5.43888 10.9986C5.421 11.0257 5.41024 11.0554 5.40724 11.0859C5.40425 11.1164 5.40909 11.1471 5.42148 11.176C5.45195 11.2674 5.48857 11.3574 5.53118 11.4456C5.55135 11.4905 5.58822 11.5293 5.63678 11.5567C5.68533 11.5842 5.74321 11.5989 5.80254 11.5989H5.90069C5.97264 11.5779 6.0313 11.5348 6.06378 11.4791C6.09626 11.4233 6.0999 11.3594 6.0739 11.3015C6.00462 11.2039 5.97575 11.1249 5.94111 11.0413H5.96998ZM11.7552 14.9633C13.0983 14.9608 14.4089 14.6305 15.5139 14.016C16.6189 13.4015 17.4664 12.5317 17.9444 11.5215C18.4225 10.5113 18.5087 9.40813 18.1916 8.35768C17.8745 7.30722 17.1691 6.35885 16.1684 5.63779C15.1678 4.91673 13.9189 4.45687 12.5868 4.31894C11.2547 4.181 9.90188 4.37147 8.70704 4.8652C7.51221 5.35893 6.5315 6.1327 5.89439 7.08436C5.25729 8.03602 4.99375 9.12081 5.13857 10.1955C5.14727 10.2564 5.18554 10.3121 5.24502 10.3504C5.3045 10.3887 5.38038 10.4065 5.45612 10.4C5.53222 10.393 5.60193 10.3623 5.65044 10.3146C5.69895 10.2669 5.72244 10.2058 5.71593 10.1444C5.59541 9.22839 5.79795 8.30357 6.30036 7.47593C6.80277 6.64829 7.58471 5.95132 8.55658 5.46488C9.23393 5.12739 9.98728 4.90066 10.7736 4.79765C11.5598 4.69465 12.3636 4.71737 13.139 4.86454C13.9143 5.01171 14.6461 5.28043 15.2923 5.65534C15.9386 6.03025 16.4867 6.504 16.9053 7.0495C17.6385 8.14688 17.8229 9.42832 17.4208 10.6315C17.0186 11.8348 16.0603 12.8688 14.7419 13.5219C13.4236 14.1751 11.8449 14.398 10.3291 14.145C8.81321 13.8921 7.4748 13.1824 6.58776 12.1612C6.56767 12.1353 6.54142 12.1128 6.51053 12.095C6.47963 12.0772 6.44469 12.0645 6.4077 12.0576C6.37071 12.0507 6.33239 12.0497 6.29493 12.0548C6.25747 12.0598 6.2216 12.0707 6.18938 12.0869C6.15715 12.103 6.1292 12.1241 6.10712 12.149C6.08504 12.1739 6.06926 12.202 6.06068 12.2318C6.0521 12.2616 6.05089 12.2924 6.05712 12.3225C6.06336 12.3527 6.0769 12.3816 6.097 12.4075C6.6897 13.1875 7.52114 13.8321 8.51179 14.2796C9.50245 14.7271 10.6192 14.9625 11.7552 14.9633ZM11.045 11.7104C11.1204 11.7108 11.1929 11.6875 11.2471 11.6454L15.8661 7.92779C15.9189 7.88435 15.9486 7.82596 15.9486 7.76514C15.9486 7.70432 15.9189 7.64593 15.8661 7.6025C15.8392 7.58072 15.8073 7.56343 15.7721 7.55164C15.7369 7.53984 15.6992 7.53377 15.6611 7.53377C15.623 7.53377 15.5852 7.53984 15.5501 7.55164C15.5149 7.56343 15.483 7.58072 15.4561 7.6025L11.045 11.1528L8.52771 9.13136C8.5018 9.10913 8.47049 9.09142 8.43574 9.07931C8.40098 9.0672 8.36351 9.06095 8.32563 9.06095C8.28776 9.06095 8.25029 9.0672 8.21553 9.07931C8.18078 9.09142 8.14947 9.10913 8.12356 9.13136C8.0965 9.15296 8.07502 9.17866 8.06037 9.20697C8.04571 9.23529 8.03816 9.26566 8.03816 9.29633C8.03816 9.327 8.04571 9.35737 8.06037 9.38568C8.07502 9.414 8.0965 9.4397 8.12356 9.4613L10.843 11.65C10.8978 11.6913 10.9699 11.7145 11.045 11.7151V11.7104ZM1.37991 4.22413C1.37843 4.16287 1.34754 4.10446 1.29372 4.06115C1.2399 4.01783 1.16732 3.99296 1.09122 3.99178H0.288684C0.212583 3.99296 0.14001 4.01783 0.0861886 4.06115C0.032367 4.10446 0.0014781 4.16287 0 4.22413C0 4.28575 0.0304146 4.34485 0.0845532 4.38842C0.138692 4.432 0.21212 4.45648 0.288684 4.45648H1.09122C1.16779 4.45648 1.24122 4.432 1.29535 4.38842C1.34949 4.34485 1.37991 4.28575 1.37991 4.22413ZM3.11201 4.45648H3.91455C3.99111 4.45648 4.06454 4.432 4.11868 4.38842C4.17282 4.34485 4.20323 4.28575 4.20323 4.22413C4.20175 4.16287 4.17087 4.10446 4.11704 4.06115C4.06322 4.01783 3.99065 3.99296 3.91455 3.99178H3.10046C3.02436 3.99296 2.95179 4.01783 2.89797 4.06115C2.84415 4.10446 2.81326 4.16287 2.81178 4.22413C2.81178 4.28575 2.84219 4.34485 2.89633 4.38842C2.95047 4.432 3.0239 4.45648 3.10046 4.45648H3.11201ZM2.39607 5.67864V5.03735C2.39607 4.97573 2.36566 4.91663 2.31152 4.87305C2.25738 4.82948 2.18395 4.805 2.10739 4.805C2.03083 4.805 1.9574 4.82948 1.90326 4.87305C1.84912 4.91663 1.81871 4.97573 1.81871 5.03735V5.67864C1.81871 5.74026 1.84912 5.79936 1.90326 5.84293C1.9574 5.88651 2.03083 5.91099 2.10739 5.91099C2.18193 5.90859 2.25243 5.88305 2.3041 5.83973C2.35576 5.79642 2.38459 5.73868 2.38453 5.67864H2.39607ZM2.10739 3.6479C2.18395 3.6479 2.25738 3.62342 2.31152 3.57984C2.36566 3.53627 2.39607 3.47717 2.39607 3.41555V2.77426C2.39165 2.71509 2.3593 2.65951 2.30563 2.6189C2.25197 2.5783 2.18105 2.55574 2.10739 2.55585C2.03083 2.55585 1.9574 2.58033 1.90326 2.6239C1.84912 2.66748 1.81871 2.72658 1.81871 2.7882V3.41555C1.81871 3.47717 1.84912 3.53627 1.90326 3.57984C1.9574 3.62342 2.03083 3.6479 2.10739 3.6479ZM16.3453 1.91921H17.1189C17.1955 1.91921 17.2689 1.89473 17.3231 1.85116C17.3772 1.80758 17.4076 1.74849 17.4076 1.68686C17.4076 1.62524 17.3772 1.56614 17.3231 1.52257C17.2689 1.47899 17.1955 1.45451 17.1189 1.45451H16.3453C16.2687 1.45451 16.1953 1.47899 16.1411 1.52257C16.087 1.56614 16.0566 1.62524 16.0566 1.68686C16.0566 1.74849 16.087 1.80758 16.1411 1.85116C16.1953 1.89473 16.2687 1.91921 16.3453 1.91921ZM19.157 1.91921H19.9596C20.0361 1.91921 20.1096 1.89473 20.1637 1.85116C20.2179 1.80758 20.2483 1.74849 20.2483 1.68686C20.2483 1.62524 20.2179 1.56614 20.1637 1.52257C20.1096 1.47899 20.0361 1.45451 19.9596 1.45451H19.157C19.0805 1.45451 19.0071 1.47899 18.9529 1.52257C18.8988 1.56614 18.8684 1.62524 18.8684 1.68686C18.8684 1.74849 18.8988 1.80758 18.9529 1.85116C19.0071 1.89473 19.0805 1.91921 19.157 1.91921ZM18.1524 3.37372C18.2285 3.37253 18.3011 3.34767 18.3549 3.30435C18.4087 3.26103 18.4396 3.20262 18.4411 3.14137V2.49544C18.4396 2.43419 18.4087 2.37578 18.3549 2.33246C18.3011 2.28914 18.2285 2.26428 18.1524 2.26309C18.0759 2.26309 18.0024 2.28757 17.9483 2.33114C17.8942 2.37472 17.8637 2.43382 17.8637 2.49544V3.14137C17.8637 3.203 17.8942 3.2621 17.9483 3.30567C18.0024 3.34924 18.0759 3.37372 18.1524 3.37372ZM18.1524 1.11063C18.2285 1.10944 18.3011 1.08458 18.3549 1.04126C18.4087 0.997945 18.4396 0.939534 18.4411 0.878283V0.23235C18.4396 0.171099 18.4087 0.112689 18.3549 0.0693702C18.3011 0.0260513 18.2285 0.00118967 18.1524 0C18.0759 0 18.0024 0.0244797 17.9483 0.0680538C17.8942 0.111628 17.8637 0.170727 17.8637 0.23235V0.878283C17.8637 0.939906 17.8942 0.999006 17.9483 1.04258C18.0024 1.08615 18.0759 1.11063 18.1524 1.11063ZM22.0497 7.43985H22.627C22.7036 7.43985 22.777 7.41537 22.8312 7.3718C22.8853 7.32822 22.9157 7.26912 22.9157 7.2075C22.9157 7.14588 22.8853 7.08678 22.8312 7.0432C22.777 6.99963 22.7036 6.97515 22.627 6.97515H22.0497C21.9736 6.97634 21.901 7.0012 21.8472 7.04452C21.7933 7.08784 21.7624 7.14625 21.761 7.2075C21.761 7.26912 21.7914 7.32822 21.8455 7.3718C21.8997 7.41537 21.9731 7.43985 22.0497 7.43985ZM24.7113 6.97515H24.1339C24.0574 6.97515 23.984 6.99963 23.9298 7.0432C23.8757 7.08678 23.8453 7.14588 23.8453 7.2075C23.8453 7.26912 23.8757 7.32822 23.9298 7.3718C23.984 7.41537 24.0574 7.43985 24.1339 7.43985H24.7113C24.7879 7.43985 24.8613 7.41537 24.9154 7.3718C24.9696 7.32822 25 7.26912 25 7.2075C24.9985 7.14625 24.9676 7.08784 24.9138 7.04452C24.86 7.0012 24.7874 6.97634 24.7113 6.97515ZM23.3834 8.50866C23.4599 8.50866 23.5334 8.48418 23.5875 8.44061C23.6416 8.39703 23.6721 8.33793 23.6721 8.27631V7.81161C23.6721 7.74999 23.6416 7.69089 23.5875 7.64731C23.5334 7.60374 23.4599 7.57926 23.3834 7.57926C23.3068 7.57926 23.2334 7.60374 23.1792 7.64731C23.1251 7.69089 23.0947 7.74999 23.0947 7.81161V8.27631C23.0947 8.33793 23.1251 8.39703 23.1792 8.44061C23.2334 8.48418 23.3068 8.50866 23.3834 8.50866ZM23.3834 6.84503C23.4599 6.84503 23.5334 6.82056 23.5875 6.77698C23.6416 6.73341 23.6721 6.67431 23.6721 6.61268V6.14798C23.6706 6.08673 23.6397 6.02832 23.5859 5.985C23.532 5.94169 23.4595 5.91682 23.3834 5.91563C23.3068 5.91563 23.2334 5.94011 23.1792 5.98369C23.1251 6.02726 23.0947 6.08636 23.0947 6.14798V6.61268C23.0947 6.67431 23.1251 6.73341 23.1792 6.77698C23.2334 6.82056 23.3068 6.84503 23.3834 6.84503ZM1.67436 13.3508H1.097C1.02043 13.3508 0.947006 13.3753 0.892867 13.4189C0.838728 13.4625 0.808314 13.5216 0.808314 13.5832C0.808314 13.6448 0.838728 13.7039 0.892867 13.7475C0.947006 13.7911 1.02043 13.8155 1.097 13.8155H1.67436C1.75093 13.8155 1.82436 13.7911 1.87849 13.7475C1.93263 13.7039 1.96305 13.6448 1.96305 13.5832C1.96154 13.5224 1.93046 13.4645 1.87648 13.4219C1.8225 13.3793 1.74994 13.3555 1.67436 13.3555V13.3508ZM3.74711 13.3508H3.16975C3.09318 13.3508 3.01975 13.3753 2.96562 13.4189C2.91148 13.4625 2.88106 13.5216 2.88106 13.5832C2.88106 13.6448 2.91148 13.7039 2.96562 13.7475C3.01975 13.7911 3.09318 13.8155 3.16975 13.8155H3.74711C3.82368 13.8155 3.8971 13.7911 3.95124 13.7475C4.00538 13.7039 4.0358 13.6448 4.0358 13.5832C4.03286 13.5228 4.00133 13.4655 3.94766 13.4232C3.89399 13.3808 3.82225 13.3566 3.74711 13.3555V13.3508ZM2.41917 13.9503C2.3426 13.9503 2.26918 13.9748 2.21504 14.0184C2.1609 14.0619 2.13048 14.121 2.13048 14.1827V14.6474C2.13048 14.709 2.1609 14.7681 2.21504 14.8116C2.26918 14.8552 2.3426 14.8797 2.41917 14.8797C2.4937 14.8749 2.56303 14.8471 2.61257 14.802C2.6621 14.757 2.68798 14.6982 2.68476 14.6381V14.1734C2.68078 14.1173 2.65169 14.0642 2.60285 14.0241C2.55402 13.9839 2.48877 13.9594 2.41917 13.9549V13.9503ZM2.41917 12.282C2.3426 12.282 2.26918 12.3065 2.21504 12.3501C2.1609 12.3937 2.13048 12.4528 2.13048 12.5144V12.9791C2.13048 13.0407 2.1609 13.0998 2.21504 13.1434C2.26918 13.1869 2.3426 13.2114 2.41917 13.2114C2.49573 13.2114 2.56916 13.1869 2.6233 13.1434C2.67744 13.0998 2.70785 13.0407 2.70785 12.9791V12.5144C2.70492 12.4539 2.67339 12.3967 2.61972 12.3544C2.56605 12.312 2.4943 12.2878 2.41917 12.2867V12.282Z" fill="white"/>
</g>
<path d="M19.7055 6.51045C19.7402 6.57551 19.7806 6.63592 19.8152 6.70098C19.8465 6.75707 19.8488 6.82084 19.8218 6.87832C19.7947 6.93581 19.7405 6.98232 19.6709 7.00768C19.6328 7.02191 19.5916 7.02982 19.5497 7.03091C19.4941 7.03076 19.4399 7.01746 19.3937 6.99267C19.3475 6.96788 19.3114 6.9327 19.2898 6.8915L19.1859 6.73815C19.1522 6.68269 19.1473 6.61873 19.1722 6.56034C19.1971 6.50195 19.2498 6.45392 19.3187 6.4268C19.3876 6.39969 19.4671 6.39572 19.5396 6.41576C19.6122 6.43581 19.6719 6.47822 19.7055 6.53369V6.51045ZM21.6917 20.9162C21.7176 20.9504 21.7541 20.9787 21.7976 20.9982C21.8411 21.0178 21.8901 21.0279 21.94 21.0277C21.9928 21.0286 22.0449 21.0173 22.0901 20.9952C22.1223 20.979 22.1503 20.9579 22.1725 20.9331C22.1946 20.9082 22.2104 20.8801 22.219 20.8503C22.2275 20.8205 22.2287 20.7896 22.2225 20.7595C22.2162 20.7293 22.2026 20.7004 22.1824 20.6745L21.9977 20.4282C21.9562 20.3767 21.8915 20.3402 21.8172 20.3263C21.7428 20.3124 21.6647 20.3223 21.5993 20.3539C21.5664 20.3696 21.5378 20.3904 21.5153 20.4153C21.4927 20.4401 21.4766 20.4683 21.468 20.4983C21.4594 20.5283 21.4584 20.5593 21.465 20.5896C21.4717 20.6199 21.486 20.6488 21.5069 20.6745L21.6917 20.9162ZM24.5785 23.7648C24.6789 23.8943 24.7465 24.0385 24.7773 24.1891C24.8081 24.3398 24.8016 24.4938 24.7581 24.6424C24.7147 24.791 24.6351 24.9312 24.524 25.0549C24.4129 25.1787 24.2725 25.2835 24.1109 25.3633L23.1466 25.828C22.9198 25.9417 22.6575 26.0013 22.3903 26C22.2778 25.9997 22.1656 25.9903 22.0554 25.9721C21.6848 25.8982 21.3641 25.7116 21.1605 25.4516L15.4561 18.0164C15.4363 17.9906 15.4232 17.9618 15.4174 17.9318C15.4117 17.9019 15.4134 17.8712 15.4226 17.8418C15.4317 17.8124 15.4481 17.7847 15.4707 17.7604C15.4933 17.7361 15.5217 17.7157 15.5543 17.7004L15.8949 17.5285L14.8961 16.2645C13.3688 16.7326 11.7101 16.8507 10.1044 16.6058C8.4987 16.3608 7.0088 15.7624 5.80023 14.8769C4.59166 13.9915 3.71174 12.8537 3.25822 11.59C2.80469 10.3262 2.79533 8.98606 3.23117 7.71832C3.66701 6.45058 4.53098 5.3049 5.7271 4.40857C6.92323 3.51224 8.40467 2.90035 10.0069 2.64088C11.609 2.38141 13.2692 2.48451 14.803 2.93874C16.3367 3.39296 17.684 4.18053 18.6951 5.21394C18.7417 5.26266 18.7624 5.32425 18.7526 5.38522C18.7429 5.44619 18.7035 5.50157 18.6432 5.53923C18.5834 5.57722 18.5073 5.59463 18.4316 5.58767C18.3559 5.5807 18.2867 5.54993 18.239 5.50205C16.9754 4.21484 15.1645 3.34967 13.1553 3.07328C11.1462 2.7969 9.08108 3.12888 7.358 4.00522C5.63491 4.88157 4.37585 6.24025 3.8235 7.81938C3.27114 9.39852 3.46459 11.0863 4.36655 12.5575C5.26851 14.0286 6.81514 15.179 8.70833 15.7868C10.6015 16.3947 12.7073 16.417 14.6197 15.8495C16.5321 15.2819 18.1158 14.1647 19.0655 12.7132C20.0153 11.2616 20.2638 9.57848 19.7633 7.9882C19.7441 7.92657 19.7562 7.86136 19.7968 7.80689C19.8374 7.75242 19.9032 7.71317 19.9798 7.69776C20.0564 7.68235 20.1374 7.69206 20.2051 7.72474C20.2727 7.75742 20.3215 7.8104 20.3406 7.87202C20.758 9.1885 20.6958 10.5739 20.1614 11.8626C19.6269 13.1514 18.6429 14.2891 17.3268 15.1399L18.2737 16.3574L18.4873 16.2506C18.5511 16.2189 18.6279 16.2088 18.7009 16.2227C18.775 16.2365 18.8393 16.2732 18.8799 16.3249L21.4261 19.6336C21.4653 19.6863 21.4776 19.7491 21.4603 19.8089C21.4431 19.8687 21.3977 19.9208 21.3337 19.9542C21.3017 19.9711 21.2659 19.9826 21.2282 19.9879C21.1906 19.9933 21.152 19.9925 21.1148 19.9856C21.0776 19.9786 21.0425 19.9657 21.0116 19.9475C20.9808 19.9293 20.9548 19.9063 20.9353 19.8799L18.545 16.7664L18.3372 16.8733L16.455 17.8027L16.1143 17.97L16.7379 18.7832L16.7725 18.7507L17.679 18.286C17.7435 18.2521 17.822 18.2399 17.8976 18.2521C17.9731 18.2642 18.0397 18.2998 18.0831 18.351C18.1249 18.4022 18.1399 18.4647 18.1247 18.5247C18.1096 18.5848 18.0656 18.6376 18.0023 18.6717L17.0612 19.1457C17.0365 19.1504 17.0108 19.1504 16.9861 19.1457L17.5635 19.9263L19.4284 18.9644C19.4593 18.9469 19.4943 18.9346 19.5312 18.9282C19.5681 18.9217 19.6063 18.9213 19.6434 18.927C19.6806 18.9326 19.7159 18.9442 19.7474 18.961C19.7789 18.9778 19.8059 18.9995 19.8268 19.0248C19.8689 19.0768 19.884 19.1399 19.8689 19.2008C19.8538 19.2616 19.8096 19.3152 19.746 19.3501L17.9388 20.3306L18.5162 21.0974L19.3764 20.6327C19.441 20.5988 19.5195 20.5867 19.595 20.5988C19.6706 20.611 19.7372 20.6465 19.7806 20.6978C19.8224 20.749 19.8373 20.8114 19.8222 20.8715C19.807 20.9315 19.7631 20.9843 19.6998 21.0184L18.8222 21.4831L19.3995 22.2452L21.1316 21.3158C21.1626 21.2983 21.1975 21.286 21.2344 21.2796C21.2714 21.2731 21.3095 21.2727 21.3467 21.2783C21.3838 21.284 21.4192 21.2955 21.4506 21.3123C21.4821 21.3292 21.5091 21.3509 21.53 21.3762C21.5721 21.4282 21.5872 21.4913 21.5721 21.5521C21.557 21.613 21.5129 21.6666 21.4492 21.7015L19.7171 22.6309L20.2945 23.393L21.0277 23.0027C21.0923 22.9688 21.1707 22.9566 21.2463 22.9688C21.3218 22.981 21.3885 23.0165 21.4319 23.0677C21.4737 23.1189 21.4886 23.1814 21.4735 23.2414C21.4583 23.3015 21.4143 23.3543 21.351 23.3884L20.5831 23.8112L21.1605 24.5733L22.8002 23.6858C22.8632 23.6517 22.9403 23.6389 23.0148 23.6502C23.0894 23.6615 23.1554 23.696 23.1986 23.7462C23.2413 23.7976 23.2573 23.8603 23.2433 23.9211C23.2293 23.9819 23.1863 24.0358 23.1236 24.0715L21.4492 24.9683L21.6282 25.2053C21.7508 25.3616 21.9446 25.4729 22.168 25.5155C22.3914 25.5581 22.6267 25.5285 22.8233 25.433L23.7875 24.9683C23.982 24.8686 24.1207 24.712 24.1744 24.5315C24.1996 24.4394 24.2014 24.3442 24.1795 24.2515C24.1577 24.1589 24.1127 24.0707 24.0473 23.9925L22.3961 21.8363C22.3775 21.81 22.3655 21.7811 22.3608 21.7511C22.3562 21.7212 22.3588 21.6908 22.3688 21.6616C22.3787 21.6325 22.3956 21.6052 22.4186 21.5814C22.4417 21.5575 22.4703 21.5375 22.5029 21.5226C22.5355 21.5076 22.5714 21.498 22.6087 21.4942C22.6459 21.4905 22.6837 21.4926 22.7199 21.5006C22.7561 21.5086 22.7899 21.5222 22.8196 21.5408C22.8492 21.5593 22.874 21.5823 22.8926 21.6086L24.5785 23.7648ZM16.3626 17.2915L17.754 16.5991L16.9226 15.521L15.5312 16.2134L16.3626 17.2915ZM5.96998 11.0413C5.95943 11.0121 5.94172 10.9848 5.91789 10.9612C5.89406 10.9376 5.86459 10.9181 5.83122 10.9038C5.79785 10.8895 5.76126 10.8807 5.72361 10.878C5.68596 10.8753 5.64801 10.8786 5.61201 10.8879C5.57526 10.8958 5.54092 10.9097 5.51113 10.9288C5.48135 10.9478 5.45675 10.9716 5.43888 10.9986C5.421 11.0257 5.41024 11.0554 5.40724 11.0859C5.40425 11.1164 5.40909 11.1471 5.42148 11.176C5.45195 11.2674 5.48857 11.3574 5.53118 11.4456C5.55135 11.4905 5.58822 11.5293 5.63678 11.5567C5.68533 11.5842 5.74321 11.5989 5.80254 11.5989H5.90069C5.97264 11.5779 6.0313 11.5348 6.06378 11.4791C6.09626 11.4233 6.0999 11.3594 6.0739 11.3015C6.00462 11.2039 5.97575 11.1249 5.94111 11.0413H5.96998ZM11.7552 14.9633C13.0983 14.9608 14.4089 14.6305 15.5139 14.016C16.6189 13.4015 17.4664 12.5317 17.9444 11.5215C18.4225 10.5113 18.5087 9.40813 18.1916 8.35768C17.8745 7.30722 17.1691 6.35885 16.1684 5.63779C15.1678 4.91673 13.9189 4.45687 12.5868 4.31894C11.2547 4.181 9.90188 4.37147 8.70704 4.8652C7.51221 5.35893 6.5315 6.1327 5.89439 7.08436C5.25729 8.03602 4.99375 9.12081 5.13857 10.1955C5.14727 10.2564 5.18554 10.3121 5.24502 10.3504C5.3045 10.3887 5.38038 10.4065 5.45612 10.4C5.53222 10.393 5.60193 10.3623 5.65044 10.3146C5.69895 10.2669 5.72244 10.2058 5.71593 10.1444C5.59541 9.22839 5.79795 8.30357 6.30036 7.47593C6.80277 6.64829 7.58471 5.95132 8.55658 5.46488C9.23393 5.12739 9.98728 4.90066 10.7736 4.79765C11.5598 4.69465 12.3636 4.71737 13.139 4.86454C13.9143 5.01171 14.6461 5.28043 15.2923 5.65534C15.9386 6.03025 16.4867 6.504 16.9053 7.0495C17.6385 8.14688 17.8229 9.42832 17.4208 10.6315C17.0186 11.8348 16.0603 12.8688 14.7419 13.5219C13.4236 14.1751 11.8449 14.398 10.3291 14.145C8.81321 13.8921 7.4748 13.1824 6.58776 12.1612C6.56767 12.1353 6.54142 12.1128 6.51053 12.095C6.47963 12.0772 6.44469 12.0645 6.4077 12.0576C6.37071 12.0507 6.33239 12.0497 6.29493 12.0548C6.25747 12.0598 6.2216 12.0707 6.18938 12.0869C6.15715 12.103 6.1292 12.1241 6.10712 12.149C6.08504 12.1739 6.06926 12.202 6.06068 12.2318C6.0521 12.2616 6.05089 12.2924 6.05712 12.3225C6.06336 12.3527 6.0769 12.3816 6.097 12.4075C6.6897 13.1875 7.52114 13.8321 8.51179 14.2796C9.50245 14.7271 10.6192 14.9625 11.7552 14.9633ZM11.045 11.7104C11.1204 11.7108 11.1929 11.6875 11.2471 11.6454L15.8661 7.92779C15.9189 7.88435 15.9486 7.82596 15.9486 7.76514C15.9486 7.70432 15.9189 7.64593 15.8661 7.6025C15.8392 7.58072 15.8073 7.56343 15.7721 7.55164C15.7369 7.53984 15.6992 7.53377 15.6611 7.53377C15.623 7.53377 15.5852 7.53984 15.5501 7.55164C15.5149 7.56343 15.483 7.58072 15.4561 7.6025L11.045 11.1528L8.52771 9.13136C8.5018 9.10913 8.47049 9.09142 8.43574 9.07931C8.40098 9.0672 8.36351 9.06095 8.32563 9.06095C8.28776 9.06095 8.25029 9.0672 8.21553 9.07931C8.18078 9.09142 8.14947 9.10913 8.12356 9.13136C8.0965 9.15296 8.07502 9.17866 8.06037 9.20697C8.04571 9.23529 8.03816 9.26566 8.03816 9.29633C8.03816 9.327 8.04571 9.35737 8.06037 9.38568C8.07502 9.414 8.0965 9.4397 8.12356 9.4613L10.843 11.65C10.8978 11.6913 10.9699 11.7145 11.045 11.7151V11.7104ZM1.37991 4.22413C1.37843 4.16287 1.34754 4.10446 1.29372 4.06115C1.2399 4.01783 1.16732 3.99296 1.09122 3.99178H0.288684C0.212583 3.99296 0.14001 4.01783 0.0861886 4.06115C0.032367 4.10446 0.0014781 4.16287 0 4.22413C0 4.28575 0.0304146 4.34485 0.0845532 4.38842C0.138692 4.432 0.21212 4.45648 0.288684 4.45648H1.09122C1.16779 4.45648 1.24122 4.432 1.29535 4.38842C1.34949 4.34485 1.37991 4.28575 1.37991 4.22413ZM3.11201 4.45648H3.91455C3.99111 4.45648 4.06454 4.432 4.11868 4.38842C4.17282 4.34485 4.20323 4.28575 4.20323 4.22413C4.20175 4.16287 4.17087 4.10446 4.11704 4.06115C4.06322 4.01783 3.99065 3.99296 3.91455 3.99178H3.10046C3.02436 3.99296 2.95179 4.01783 2.89797 4.06115C2.84415 4.10446 2.81326 4.16287 2.81178 4.22413C2.81178 4.28575 2.84219 4.34485 2.89633 4.38842C2.95047 4.432 3.0239 4.45648 3.10046 4.45648H3.11201ZM2.39607 5.67864V5.03735C2.39607 4.97573 2.36566 4.91663 2.31152 4.87305C2.25738 4.82948 2.18395 4.805 2.10739 4.805C2.03083 4.805 1.9574 4.82948 1.90326 4.87305C1.84912 4.91663 1.81871 4.97573 1.81871 5.03735V5.67864C1.81871 5.74026 1.84912 5.79936 1.90326 5.84293C1.9574 5.88651 2.03083 5.91099 2.10739 5.91099C2.18193 5.90859 2.25243 5.88305 2.3041 5.83973C2.35576 5.79642 2.38459 5.73868 2.38453 5.67864H2.39607ZM2.10739 3.6479C2.18395 3.6479 2.25738 3.62342 2.31152 3.57984C2.36566 3.53627 2.39607 3.47717 2.39607 3.41555V2.77426C2.39165 2.71509 2.3593 2.65951 2.30563 2.6189C2.25197 2.5783 2.18105 2.55574 2.10739 2.55585C2.03083 2.55585 1.9574 2.58033 1.90326 2.6239C1.84912 2.66748 1.81871 2.72658 1.81871 2.7882V3.41555C1.81871 3.47717 1.84912 3.53627 1.90326 3.57984C1.9574 3.62342 2.03083 3.6479 2.10739 3.6479ZM16.3453 1.91921H17.1189C17.1955 1.91921 17.2689 1.89473 17.3231 1.85116C17.3772 1.80758 17.4076 1.74849 17.4076 1.68686C17.4076 1.62524 17.3772 1.56614 17.3231 1.52257C17.2689 1.47899 17.1955 1.45451 17.1189 1.45451H16.3453C16.2687 1.45451 16.1953 1.47899 16.1411 1.52257C16.087 1.56614 16.0566 1.62524 16.0566 1.68686C16.0566 1.74849 16.087 1.80758 16.1411 1.85116C16.1953 1.89473 16.2687 1.91921 16.3453 1.91921ZM19.157 1.91921H19.9596C20.0361 1.91921 20.1096 1.89473 20.1637 1.85116C20.2179 1.80758 20.2483 1.74849 20.2483 1.68686C20.2483 1.62524 20.2179 1.56614 20.1637 1.52257C20.1096 1.47899 20.0361 1.45451 19.9596 1.45451H19.157C19.0805 1.45451 19.0071 1.47899 18.9529 1.52257C18.8988 1.56614 18.8684 1.62524 18.8684 1.68686C18.8684 1.74849 18.8988 1.80758 18.9529 1.85116C19.0071 1.89473 19.0805 1.91921 19.157 1.91921ZM18.1524 3.37372C18.2285 3.37253 18.3011 3.34767 18.3549 3.30435C18.4087 3.26103 18.4396 3.20262 18.4411 3.14137V2.49544C18.4396 2.43419 18.4087 2.37578 18.3549 2.33246C18.3011 2.28914 18.2285 2.26428 18.1524 2.26309C18.0759 2.26309 18.0024 2.28757 17.9483 2.33114C17.8942 2.37472 17.8637 2.43382 17.8637 2.49544V3.14137C17.8637 3.203 17.8942 3.2621 17.9483 3.30567C18.0024 3.34924 18.0759 3.37372 18.1524 3.37372ZM18.1524 1.11063C18.2285 1.10944 18.3011 1.08458 18.3549 1.04126C18.4087 0.997945 18.4396 0.939534 18.4411 0.878283V0.23235C18.4396 0.171099 18.4087 0.112689 18.3549 0.0693702C18.3011 0.0260513 18.2285 0.00118967 18.1524 0C18.0759 0 18.0024 0.0244797 17.9483 0.0680538C17.8942 0.111628 17.8637 0.170727 17.8637 0.23235V0.878283C17.8637 0.939906 17.8942 0.999006 17.9483 1.04258C18.0024 1.08615 18.0759 1.11063 18.1524 1.11063ZM22.0497 7.43985H22.627C22.7036 7.43985 22.777 7.41537 22.8312 7.3718C22.8853 7.32822 22.9157 7.26912 22.9157 7.2075C22.9157 7.14588 22.8853 7.08678 22.8312 7.0432C22.777 6.99963 22.7036 6.97515 22.627 6.97515H22.0497C21.9736 6.97634 21.901 7.0012 21.8472 7.04452C21.7933 7.08784 21.7624 7.14625 21.761 7.2075C21.761 7.26912 21.7914 7.32822 21.8455 7.3718C21.8997 7.41537 21.9731 7.43985 22.0497 7.43985ZM24.7113 6.97515H24.1339C24.0574 6.97515 23.984 6.99963 23.9298 7.0432C23.8757 7.08678 23.8453 7.14588 23.8453 7.2075C23.8453 7.26912 23.8757 7.32822 23.9298 7.3718C23.984 7.41537 24.0574 7.43985 24.1339 7.43985H24.7113C24.7879 7.43985 24.8613 7.41537 24.9154 7.3718C24.9696 7.32822 25 7.26912 25 7.2075C24.9985 7.14625 24.9676 7.08784 24.9138 7.04452C24.86 7.0012 24.7874 6.97634 24.7113 6.97515ZM23.3834 8.50866C23.4599 8.50866 23.5334 8.48418 23.5875 8.44061C23.6416 8.39703 23.6721 8.33793 23.6721 8.27631V7.81161C23.6721 7.74999 23.6416 7.69089 23.5875 7.64731C23.5334 7.60374 23.4599 7.57926 23.3834 7.57926C23.3068 7.57926 23.2334 7.60374 23.1792 7.64731C23.1251 7.69089 23.0947 7.74999 23.0947 7.81161V8.27631C23.0947 8.33793 23.1251 8.39703 23.1792 8.44061C23.2334 8.48418 23.3068 8.50866 23.3834 8.50866ZM23.3834 6.84503C23.4599 6.84503 23.5334 6.82056 23.5875 6.77698C23.6416 6.73341 23.6721 6.67431 23.6721 6.61268V6.14798C23.6706 6.08673 23.6397 6.02832 23.5859 5.985C23.532 5.94169 23.4595 5.91682 23.3834 5.91563C23.3068 5.91563 23.2334 5.94011 23.1792 5.98369C23.1251 6.02726 23.0947 6.08636 23.0947 6.14798V6.61268C23.0947 6.67431 23.1251 6.73341 23.1792 6.77698C23.2334 6.82056 23.3068 6.84503 23.3834 6.84503ZM1.67436 13.3508H1.097C1.02043 13.3508 0.947006 13.3753 0.892867 13.4189C0.838728 13.4625 0.808314 13.5216 0.808314 13.5832C0.808314 13.6448 0.838728 13.7039 0.892867 13.7475C0.947006 13.7911 1.02043 13.8155 1.097 13.8155H1.67436C1.75093 13.8155 1.82436 13.7911 1.87849 13.7475C1.93263 13.7039 1.96305 13.6448 1.96305 13.5832C1.96154 13.5224 1.93046 13.4645 1.87648 13.4219C1.8225 13.3793 1.74994 13.3555 1.67436 13.3555V13.3508ZM3.74711 13.3508H3.16975C3.09318 13.3508 3.01975 13.3753 2.96562 13.4189C2.91148 13.4625 2.88106 13.5216 2.88106 13.5832C2.88106 13.6448 2.91148 13.7039 2.96562 13.7475C3.01975 13.7911 3.09318 13.8155 3.16975 13.8155H3.74711C3.82368 13.8155 3.8971 13.7911 3.95124 13.7475C4.00538 13.7039 4.0358 13.6448 4.0358 13.5832C4.03286 13.5228 4.00133 13.4655 3.94766 13.4232C3.89399 13.3808 3.82225 13.3566 3.74711 13.3555V13.3508ZM2.41917 13.9503C2.3426 13.9503 2.26918 13.9748 2.21504 14.0184C2.1609 14.0619 2.13048 14.121 2.13048 14.1827V14.6474C2.13048 14.709 2.1609 14.7681 2.21504 14.8116C2.26918 14.8552 2.3426 14.8797 2.41917 14.8797C2.4937 14.8749 2.56303 14.8471 2.61257 14.802C2.6621 14.757 2.68798 14.6982 2.68476 14.6381V14.1734C2.68078 14.1173 2.65169 14.0642 2.60285 14.0241C2.55402 13.9839 2.48877 13.9594 2.41917 13.9549V13.9503ZM2.41917 12.282C2.3426 12.282 2.26918 12.3065 2.21504 12.3501C2.1609 12.3937 2.13048 12.4528 2.13048 12.5144V12.9791C2.13048 13.0407 2.1609 13.0998 2.21504 13.1434C2.26918 13.1869 2.3426 13.2114 2.41917 13.2114C2.49573 13.2114 2.56916 13.1869 2.6233 13.1434C2.67744 13.0998 2.70785 13.0407 2.70785 12.9791V12.5144C2.70492 12.4539 2.67339 12.3967 2.61972 12.3544C2.56605 12.312 2.4943 12.2878 2.41917 12.2867V12.282Z" stroke="white" stroke-width="10" mask="url(#path-1-inside-1_24_1234)"/>
<defs>
<filter id="filter0_i_24_1234" x="0" y="0" width="25" height="30" filterUnits="userSpaceOnUse" color-interpolation-filters="sRGB">
<feFlood flood-opacity="0" result="BackgroundImageFix"/>
<feBlend mode="normal" in="SourceGraphic" in2="BackgroundImageFix" result="shape"/>
<feColorMatrix in="SourceAlpha" type="matrix" values="0 0 0 0 0 0 0 0 0 0 0 0 0 0 0 0 0 0 127 0" result="hardAlpha"/>
<feOffset dy="4"/>
<feGaussianBlur stdDeviation="2"/>
<feComposite in2="hardAlpha" operator="arithmetic" k2="-1" k3="1"/>
<feColorMatrix type="matrix" values="0 0 0 0 0 0 0 0 0 0 0 0 0 0 0 0 0 0 0.25 0"/>
<feBlend mode="normal" in2="shape" result="effect1_innerShadow_24_1234"/>
</filter>
</defs>
</svg>
