<?xml version="1.0" encoding="UTF-8"?>
<!DOCTYPE svg PUBLIC "-//W3C//DTD SVG 1.1//EN" "http://www.w3.org/Graphics/SVG/1.1/DTD/svg11.dtd">
<svg xmlns="http://www.w3.org/2000/svg" version="1.1" width="512px" height="512px" style="shape-rendering:geometricPrecision; text-rendering:geometricPrecision; image-rendering:optimizeQuality; fill-rule:evenodd; clip-rule:evenodd" xmlns:xlink="http://www.w3.org/1999/xlink">
<g><path style="opacity:0.935" fill="#000000" d="M 101.5,-0.5 C 122.167,-0.5 142.833,-0.5 163.5,-0.5C 168.775,4.28884 168.775,9.12217 163.5,14C 145.17,14.4999 126.836,14.6666 108.5,14.5C 108.5,20.5 108.5,26.5 108.5,32.5C 143.5,32.5 178.5,32.5 213.5,32.5C 213.5,26.5 213.5,20.5 213.5,14.5C 206.159,14.6663 198.826,14.4997 191.5,14C 186.232,9.17064 186.232,4.33731 191.5,-0.5C 201.167,-0.5 210.833,-0.5 220.5,-0.5C 225.06,2.23408 227.893,6.23408 229,11.5C 229.859,21.2188 229.526,30.8855 228,40.5C 226.108,44.0579 223.275,46.5579 219.5,48C 215.179,48.499 210.846,48.6657 206.5,48.5C 206.5,67.8333 206.5,87.1667 206.5,106.5C 223.17,106.333 239.837,106.5 256.5,107C 278.223,108.439 294.389,118.606 305,137.5C 308.21,143.798 310.21,150.465 311,157.5C 311.333,223.167 311.667,288.833 312,354.5C 314.634,348.728 318.134,343.561 322.5,339C 326.153,336.615 330.153,335.115 334.5,334.5C 334.334,325.827 334.5,317.16 335,308.5C 337.821,295.015 345.654,285.848 358.5,281C 366.441,279.901 374.441,279.401 382.5,279.5C 397.556,276.886 410.723,280.552 422,290.5C 425.726,295.286 428.393,300.619 430,306.5C 431.276,315.788 431.776,325.121 431.5,334.5C 438.447,335.392 443.947,338.726 448,344.5C 464,375.167 480,405.833 496,436.5C 501.933,451.535 501.933,466.535 496,481.5C 490.307,491.508 481.974,498.174 471,501.5C 470.836,505.49 469.336,508.823 466.5,511.5C 463.833,511.5 461.167,511.5 458.5,511.5C 455.816,509.129 454.482,506.129 454.5,502.5C 406.829,502.167 359.162,502.5 311.5,503.5C 310.807,506.91 309.14,509.577 306.5,511.5C 304.167,511.5 301.833,511.5 299.5,511.5C 296.386,509.044 294.72,505.711 294.5,501.5C 286.255,498.555 279.255,493.888 273.5,487.5C 267.495,499.513 258.162,507.513 245.5,511.5C 239.5,511.5 233.5,511.5 227.5,511.5C 208.394,506.055 198.06,493.388 196.5,473.5C 172.833,473.5 149.167,473.5 125.5,473.5C 123.175,492.87 112.842,505.537 94.5,511.5C 88.5,511.5 82.5,511.5 76.5,511.5C 55.957,504.826 45.2903,490.493 44.5,468.5C 15.991,453.663 5.65765,430.829 13.5,400C 19.9677,396.82 24.1344,398.653 26,405.5C 23.809,429.973 33.9757,446.806 56.5,456C 58.5,456.667 60.5,456.667 62.5,456C 140,378.5 217.5,301 295,223.5C 295.667,201.833 295.667,180.167 295,158.5C 291.128,140.961 280.628,129.461 263.5,124C 261.5,123.333 259.5,123.333 257.5,124C 180.667,200.833 103.833,277.667 27,354.5C 26.8787,361.246 26.212,367.913 25,374.5C 19.8506,379.996 15.1839,379.663 11,373.5C 10.3333,300.5 10.3333,227.5 11,154.5C 17.7581,125.543 35.9247,109.709 65.5,107C 82.1633,106.5 98.83,106.333 115.5,106.5C 115.5,87.1667 115.5,67.8333 115.5,48.5C 105.184,51.0213 97.6835,47.688 93,38.5C 92.3333,28.8333 92.3333,19.1667 93,9.5C 94.2613,4.74518 97.0947,1.41184 101.5,-0.5 Z M 131.5,48.5 C 151.167,48.5 170.833,48.5 190.5,48.5C 190.5,67.8333 190.5,87.1667 190.5,106.5C 170.833,106.5 151.167,106.5 131.5,106.5C 131.5,87.1667 131.5,67.8333 131.5,48.5 Z M 63.5,122.5 C 120.834,122.333 178.168,122.5 235.5,123C 218.333,140.167 201.167,157.333 184,174.5C 177.446,155.97 165.279,150.804 147.5,159C 143.072,162.092 140.239,166.259 139,171.5C 138.667,187.833 138.333,204.167 138,220.5C 127.667,230.833 117.333,241.167 107,251.5C 106.667,226.167 106.333,200.833 106,175.5C 101.846,157.835 91.0124,151.668 73.5,157C 66.5245,160.77 62.3578,166.603 61,174.5C 60.6667,215.833 60.3333,257.167 60,298.5C 49,309.5 38,320.5 27,331.5C 26.3333,273.167 26.3333,214.833 27,156.5C 32.0136,137.315 44.1803,125.981 63.5,122.5 Z M 82.5,170.5 C 86.6065,170.482 89.1065,172.482 90,176.5C 90.6667,207.167 90.6667,237.833 90,268.5C 85.6667,272.833 81.3333,277.167 77,281.5C 76.3333,246.5 76.3333,211.5 77,176.5C 77.6831,173.321 79.5164,171.321 82.5,170.5 Z M 159.5,170.5 C 163.09,170.544 165.59,172.211 167,175.5C 167.667,180.833 167.667,186.167 167,191.5C 163,195.5 159,199.5 155,203.5C 154.333,193.833 154.333,184.167 155,174.5C 156.397,172.93 157.897,171.596 159.5,170.5 Z M 294.5,246.5 C 295.665,293.332 295.832,340.332 295,387.5C 286.333,404.167 277.667,420.833 269,437.5C 267.054,443.398 265.554,449.398 264.5,455.5C 263.271,456.281 261.938,456.781 260.5,457C 201.833,457.667 143.167,457.667 84.5,457C 103,438.5 121.5,420 140,401.5C 148.833,414.917 160.333,417.75 174.5,410C 178.734,406.361 181.568,401.861 183,396.5C 183.333,383.5 183.667,370.5 184,357.5C 194.333,347.167 204.667,336.833 215,326.5C 215.038,351.216 215.705,375.883 217,400.5C 223.482,412.442 233.315,416.608 246.5,413C 253.661,410.192 258.161,405.026 260,397.5C 260.333,358.5 260.667,319.5 261,280.5C 272.369,269.298 283.535,257.965 294.5,246.5 Z M 364.5,295.5 C 376.505,295.333 388.505,295.5 400.5,296C 407.237,297.736 411.737,301.903 414,308.5C 415.339,317.107 415.839,325.774 415.5,334.5C 406.827,334.334 398.16,334.5 389.5,335C 384.311,337.913 383.144,342.08 386,347.5C 386.903,348.701 388.069,349.535 389.5,350C 402.496,350.5 415.496,350.667 428.5,350.5C 428.667,369.503 428.5,388.503 428,407.5C 422.167,413.333 416.333,419.167 410.5,425C 408.866,425.494 407.199,425.66 405.5,425.5C 406.165,415.306 401.499,409.473 391.5,408C 388.167,407.833 384.833,407.667 381.5,407.5C 366.617,404.744 358.95,410.744 358.5,425.5C 352.491,425.666 346.491,425.499 340.5,425C 339,424.167 337.833,423 337,421.5C 336.5,397.836 336.333,374.169 336.5,350.5C 344.174,350.666 351.841,350.5 359.5,350C 365.703,346.402 366.703,341.735 362.5,336C 358.637,334.646 354.637,334.146 350.5,334.5C 350.086,325.418 350.586,316.418 352,307.5C 354.744,301.921 358.911,297.921 364.5,295.5 Z M 243.5,297.5 C 244.664,329.664 244.831,361.997 244,394.5C 240.098,399.804 236.098,399.804 232,394.5C 231.333,366.167 231.333,337.833 232,309.5C 236.037,305.631 239.87,301.631 243.5,297.5 Z M 137.5,298.5 C 151.092,302.021 154.592,310.021 148,322.5C 138.494,328.955 130.827,327.288 125,317.5C 123.213,307.042 127.379,300.709 137.5,298.5 Z M 444.5,373.5 C 446.726,376.945 448.726,380.611 450.5,384.5C 448.851,386.65 447.018,388.65 445,390.5C 444.501,384.843 444.334,379.176 444.5,373.5 Z M 166.5,374.5 C 167.653,380.653 167.82,386.986 167,393.5C 163.324,399.599 159.324,399.932 155,394.5C 154.333,391.833 154.333,389.167 155,386.5C 159.037,382.631 162.87,378.631 166.5,374.5 Z M 319.5,374.5 C 320.331,390.662 320.831,406.995 321,423.5C 322.719,432.886 328.219,438.719 337.5,441C 344.492,441.5 351.492,441.666 358.5,441.5C 357.436,453.879 363.102,460.045 375.5,460C 366.833,468.667 358.167,477.333 349.5,486C 332.833,486.667 316.167,486.667 299.5,486C 287.693,481.679 281.359,473.179 280.5,460.5C 280.962,454.689 282.129,449.022 284,443.5C 295.859,420.447 307.693,397.447 319.5,374.5 Z M 457.5,400.5 C 458.376,400.369 459.043,400.702 459.5,401.5C 464.373,410.747 469.373,419.913 474.5,429C 455.5,448 436.5,467 417.5,486C 402.5,486.667 387.5,486.667 372.5,486C 401.035,457.632 429.368,429.132 457.5,400.5 Z M 374.5,423.5 C 379.5,423.5 384.5,423.5 389.5,423.5C 389.5,430.167 389.5,436.833 389.5,443.5C 384.5,443.5 379.5,443.5 374.5,443.5C 374.5,436.833 374.5,430.167 374.5,423.5 Z M 480.5,445.5 C 481.931,445.881 482.764,446.881 483,448.5C 487.256,461.577 484.422,472.743 474.5,482C 471.618,483.608 468.618,484.941 465.5,486C 457.167,486.667 448.833,486.667 440.5,486C 454.035,472.632 467.369,459.132 480.5,445.5 Z M 61.5,473.5 C 66.5,473.5 71.5,473.5 76.5,473.5C 77.1187,478.668 80.1187,481.335 85.5,481.5C 90.4261,480.903 93.4261,478.236 94.5,473.5C 99.5,473.5 104.5,473.5 109.5,473.5C 107.346,487.485 99.1797,495.152 85,496.5C 71.3687,494.702 63.5354,487.035 61.5,473.5 Z M 212.5,473.5 C 217.179,473.334 221.845,473.501 226.5,474C 229.502,480.891 234.502,482.891 241.5,480C 243.414,478.587 244.747,476.753 245.5,474.5C 250.5,473.167 255.5,473.167 260.5,474.5C 255.483,492.172 244.15,498.672 226.5,494C 217.968,489.759 213.301,482.926 212.5,473.5 Z"/></g>
<g><path style="opacity:0.913" fill="#000000" d="M 208.5,200.5 C 216.149,199.651 219.649,202.984 219,210.5C 218.31,213.196 216.81,215.363 214.5,217C 223,225.5 231.5,234 240,242.5C 243.198,252.265 239.698,256.432 229.5,255C 220.667,246.167 211.833,237.333 203,228.5C 198.583,234.183 193.583,234.849 188,230.5C 186,227.167 186,223.833 188,220.5C 194.729,213.603 201.562,206.937 208.5,200.5 Z"/></g>
<g><path style="opacity:0.919" fill="#000000" d="M 172.5,240.5 C 182.789,238.367 186.955,242.367 185,252.5C 181.673,255.282 177.839,257.115 173.5,258C 171.787,259.378 170.453,261.045 169.5,263C 175.537,261.432 181.537,259.432 187.5,257C 203.848,255.682 211.014,263.182 209,279.5C 203.96,293.112 194.127,299.279 179.5,298C 174.776,295.565 173.276,291.731 175,286.5C 176.167,285.333 177.333,284.167 178.5,283C 184.035,283.214 188.701,281.38 192.5,277.5C 193.309,275.929 193.643,274.262 193.5,272.5C 185.923,275.121 178.257,277.455 170.5,279.5C 159.889,278.89 154.223,273.223 153.5,262.5C 155.572,251.432 161.905,244.098 172.5,240.5 Z"/></g>
<g><path style="opacity:0.927" fill="#000000" d="M 130.5,283.5 C 156.113,281.947 168.28,293.947 167,319.5C 161.632,336.945 149.799,344.445 131.5,342C 113.731,336.313 106.231,324.147 109,305.5C 112.359,294.309 119.526,286.976 130.5,283.5 Z M 137.5,298.5 C 127.379,300.709 123.213,307.042 125,317.5C 130.827,327.288 138.494,328.955 148,322.5C 154.592,310.021 151.092,302.021 137.5,298.5 Z"/></g>
<g><path style="opacity:0.91" fill="#000000" d="M 79.5,330.5 C 82.4245,330.46 85.0912,331.293 87.5,333C 95.6809,341.348 104.014,349.514 112.5,357.5C 115.352,354.14 118.852,351.807 123,350.5C 130.542,352.597 132.542,357.264 129,364.5C 125.167,368.333 121.333,372.167 117.5,376C 114.634,377.457 111.634,377.79 108.5,377C 97,365.5 85.5,354 74,342.5C 72.3935,336.721 74.2268,332.721 79.5,330.5 Z"/></g>
</svg>
